<mxfile host="app.diagrams.net" modified="2024-03-02T12:55:29.639Z" agent="Mozilla/5.0 (Windows NT 10.0; Win64; x64) AppleWebKit/537.36 (KHTML, like Gecko) Chrome/121.0.0.0 Safari/537.36" etag="NdPxIytcj7SHNGed89gK" version="24.0.0" type="github">
  <diagram name="Halaman-1" id="KERjV6Lm5xJBeJ2IJUmN">
    <mxGraphModel dx="1032" dy="539" grid="1" gridSize="10" guides="1" tooltips="1" connect="1" arrows="1" fold="1" page="1" pageScale="1" pageWidth="827" pageHeight="1169" backgroundImage="{&quot;src&quot;:&quot;data:image/jpeg;base64,/9j/2wBDAAoHBwgHBgoICAgLCgoLDhgQDg0NDh0VFhEYIx8lJCIfIiEmKzcvJik0KSEiMEExNDk7Pj4+JS5ESUM8SDc9Pjv/2wBDAQoLCw4NDhwQEBw7KCIoOzs7Ozs7Ozs7Ozs7Ozs7Ozs7Ozs7Ozs7Ozs7Ozs7Ozs7Ozs7Ozs7Ozs7Ozs7Ozs7Ozv/wgARCARkB4ADAREAAhEBAxEB/8QAGgABAQEBAQEBAAAAAAAAAAAAAAECAwQFBv/EABcBAQEBAQAAAAAAAAAAAAAAAAABAgP/2gAMAwEAAhADEAAAAf2YAAAAAAAAAAAAAAAAAAAAAAAAAAAAAAAAAAAAAAAAAAAAAAAAAAAAAAAAAAAAAAAAAAAAAAAAAAAAAAAAAAAAAAAAAAAAAAAAAIUAAAEjnzvTrKAAAAAAAAAAAZNAAAAAAAAAAAEKAAAAAAAAAAAAAAAAAAAAAAAAAAAAAAAQoAAAAAAAAAAAAAAAAAAAAAAAAAAAAAAAAAAAAAAAAAAAAAAAAAAAAAAAAAMmgAAAQFAAAAAAAAAAABCgAAAAAAAAAAEKAAAAAAAAAAAAAAAAQFAAAAAAAAAAAAAAAAAAAAAAAAAAAAAAAAAAAAAAAAAAAAAAAAAAAAAAAAAAAAAAAAAAAAAAAAAAAAAAAAAAAAAAAAAAAAABCgAAAAAAAAAAAAAEiGqAAAAAAAAEIaAAAAAAAAAAAAAAAAAAAAAAAAAAAAAAAAAAAAAAAAAAAAAAAAAAAAAAAAAAAAAAAAOJ0NAAAAAAAAAAAAAAAAAAAAAAAAAAAAGTQAAAAAAAAAAAAABzjieqgAAAAAAAAAAAAAAAAIUAAAAAAAAAAAAAAAAAAAAAAAAAAAAAAAAAAAAAAAAAAAAAAAAAAAAAAAA+QfTOgAAAAAAAAAAAAAAAAAAAAAAAAAAAAAAAAAAAAAAAAAABCgAhQACFAAABAUAAAAAAAAAAAAAAAAAAAAAAAAAAAAAAAAAAAAAAAAAAAAAAAAAAAAAAAAAAAAAAAAgKAAAAAAAAAAAAAAAAAAAAAAAAAAAAAAAAAAAAAAAAAAAAAAAACFAAABAUAAAAAAAAAAAAAAAAAAAAAAAAAAAAAAAAAAAAAAAAAAAAAAAAAAAAAAAAEBQAAAAAAAAAAAAAAAAAAAAAAAAAAAAAAAAAAAAAAAAAAAAAAAAAAAAAAACFAAAAAAAAJGDpQAAAAAAAAAAAAAAAAAAAAAAAAAAAAAAAAAAAAAAAAAAAAAAAAAAAEBQAAAAAAAAAADBooAAAAAAAAAAAAAAAAAAAAAAAAAICgAAAAhQAAAAAAAAAAAAAAAAAAACHOOtAAAAAAAAAAAAAAAACFAAAAAAAAAAAAAAAAAAAAABCgAAAAAAAAAAAAAAAAAAAAAAAAAAAAAAAAAAAAAAAAAAAAAAAAAAAgKAAAACFAAAAAAAAAAAAAAAAAAAAAAAAAAAAAAAAAAAAAAAAAAAAAAAAAAAAAAAAAAAAAAAAICgAAAAAAAAAAAAAAAAAAAAAAAAAAAAAAAAAAAAAAAEBQAAAAAAAAAAAAAAAAAAAAAAAAAAAAAAAAAAAAAAAAAAAAAAAAAAAAAAAAAAAAAAAAAAAAAAAAAAAACAoAAAABAUAAAAAAAAAAAAAAAAAAAAAAAAAAAAAAAAAEBQAAAAAAAAAAAAAAAAAAAAAAAAAAAAAAAAAAAAAAAAAAAAAAAAAAAAAAAAAAAAAAAAAAAAAAAAAAAAAAAAAAAQFAAAAAAAAAAAAAAAAAAAAAAAAAAABAUAAAAAAAAAAhQAAAAAAAAAAAAAAAAAAAAAAAAAAAAAAAAAAAAAAAAAAAAAAAAAAAAAAAAAAAAAAAAAAAAAAAAAAAAAAAAAAAAAAAAAAAAAAAAAAAAAAAAAAAQFAAAAAAAABCghQAAAAAAAAAAAAAAAAQFAAAAAAAAAAAAAAAAAAAAAAAAAAAAAAAAAAAAAAAAAAAAAAAAAAAAAAAAAAAABCggKAAAAAAAAAAAAAAAAAAAAAACAoAAAAAAAAAAAAAAAAAAAAAAAAAAAAAABCGgAAAAAAAAAAAAAAAAAAAAAAAAAACAoAAAAAAAAAAAAAAAAAAAAAAAAAAAAAAABCgAAAAAAAAAAAAAAAAAAAAAAAAyUoBCgAAAAAAAAAAAAAAAAAAAAAAAAAAAAAAAAAAAhQAAAAAAAAAAAAAAADJSgAAAgKAAAAAAAAAAAAAAAAAAAAAAAAAAAAAAAAAAAAAAAAAAAAAAAAAAAAAACENAAAAAAAAAAAAAAAAAAAAAAAAAAAAAAAAAAAAAAAAAAAAAAAAAAhQAAAAAAAAAAAAAAAAAAAAAAAAAAAAAAAAAAAAAAAAAAAAAAAAAAAAAAAAAAAAAAAAAAAAAQFAAAAAAAAAAAAAAAAAAAAAAAAAAAAAAAAAAAAAAAAAAAAAAAAICgAAAAAAAAAAAAAAAAAAAAAAAAAAAAAAAAAAAAAAAAAAAAAAAAAAAAAAAAAAAAAAEKAAAAAAAAAAAAAAAAAAAAAAAAAAAAAAAAAAAAAAAAAAAAAAAAAAAAAAAAAAAAAAAAAAAAAAAAAAAAAAAAAAAAAAAAAAAAAAAAAAAAAAAAAAAAAAAAAAAAAAAAAAAAAAACAoAAAAAAAAAAAAAAAAAAAAAAAAAAAAAAAAAAABCgAAAAAAAAAhQAAAAAAAAAAAAAAAAAAAAAAAAAAAAAAAAAAAAAAAAAAAAAAAAAAAAAAAACAoAAAAAAAAAAAAIUAAAAAAAAgKAAAAAAAAAAAAAAAAAAAAAAAAAAAZNAAAAAAAAAAAAAEBQAACFAAAAAAAAAAAAAAAAAAAAAAAAAAAAAAAAAAAAAAAAAAAAAAAAAICgAAAAAAAAAAAAhQAAAAAAAAAAAAAAAAAAAAAAAAAAAAAAAAAZKUAAAAAhQAAAAAAAAAAAAAAAAAAAAAAAAAAAAAAAAAAAAAAAAACGTYAAAAAAAAAAAMmgAAAAAAAAAAAAAAAAQoAAAAAAAAAAAAAAAAAAAAAAAAAAAAAAAAAAAAAAAAAAAAAAAAAAAAAAAAAAAAAAAAAAAAAAAAAAAAAAAAAAAAAAAAAAAAAAAAAAAAAIUAAAAAAAAAAAAAAAAHI6gAAAAAEBQAAAAAAAAAAAAAAAAAAAAAAAAAAAAAAAAAAAAAAAAAAAAAAAAAAAAAAAAAAAAAAAAAAAAAADmE6KAAAAAAAAAAAAAABAUAAAAAAAAAAAAAAAAAAAAAAEKAAAAAACFAAAAAAAAAAAAAAAABAUAAAAAAAAhQAAAAAAAAAAAAAAAAAAAAAAAAAAAAAAAAAAAAAAAAAAACHNOi0AAAAAAAAAAAAAAAAAA5HQoAAAAAAAAAAAAAAAAAAAAAAAAAAAABAUAAAAAAAAAAAAAhClAAAAAAABAUAAAAAAAAAAAAAAAAAAAAAAAAAAAAAAAAAAAAAAAAEIUoAAAAAAAAAAAAAAAAAAAAAAAAAAAAAIUAAAAAAAAAAAAAAAAAAAAAEBQAAAAAAAAAAAACAoAAAAAAAAAAAAAAAAAAAAAAAAAAAAAAAAAAAAAAAAAAABCgAAAAEBQCAoAAAAAAAAAAAAAAAAAAAAAAAAAAAAAAAAAAAAAAAAAAAAAAAAAAAAAAAAAAAAAAAAAAAAAAAAAAAAAAAAAAAAAAAAAAAAAAAAAAAAAAAAAAAAAAAAAAAAAAAAAAAAAAAAAAAAAAAAAAAAAAAAAAAAAAAAAAAAAAAAAAAAAAAAAAAAAAAAAAAAAAAAAAAAAAAAAAAAAAAAAAAAAAAAAAAAAAAAAAAAAAAAAAAAAAAAAAAAAAAAAAAAAIUAAAAAEKAAAAAAAAAAAAACAoAAAAAICgAAAAAAAAAAAAAAAAAAAAAAAAAAAAAAAAAAAAAAEKAAAAAAAAAAAAAAAAAAAAAAAAAAAAAAAAAAAAAAAAAAAAAAAAAACFAAABzNlBCgAAAAAAAAAAAAAAAAAAAAEKAAAAAAAAAAAAAAAAAAAAAAAAAAAAAAAAAAAAAAAAAAAAAAAAAAAAAAAAAAAAAAAAAAAAAAAAAAAAAAAAAAAAAAAAAAAAAAAQFAAAAAAAAAAAAAAAAAAAAAAAAAAAAAAAAAAABCgAAAAAAAAAAAAAAAAAAAAAAAAAAAAAAAAAAAAAAAAAAAAAAAAhQAAAACAoAAAAAAAAAAABg2AAAAAAAAAAAAAAAAAAAAAAAAAAAAAAAAAAAAAAAAAAAAAAAAAAZNAAAAAAAAAAAAAAAAAAAAAAAAAAAAAAAAAGQaAAAAAAAAIUAAAAAAAEBQACFAAAAAAAAAAAABCgAAAAAAAAAAAAAAAAAAAAAAAAAAAAAAAAAAAAAAAAAAAAAAAAAAAAAAAAAAAAAAAAAAAAAAAAAAAAAAAAEKAAAAAAAAAAAAAAAAAAAAczZQAAAAAAAAAAAAAAAAQhoAAAAAAAAAAAAAAAAAAAAAAAAAAAAAAAAAAAAAAAAAAAAAAAAAAAAAAAAAAAAAAAAAAAAAAAAAAAAAAAEKAAAAAAAAAAAAAAAAAAAAAAAAAAAAAAAAAAAAAACFAAAAAAAAAAAAAAAAAAAABzOgAAAAAAAAAAAAAAAAAAAAAAAAAAAAAAAAAAAAAAAAAAAAAAAAAAAAAAAAAAAAAAAAAAAAAAAAAAAAAAAAAAAAAAAAAAAAABk0AAAAAAAAAAAAAAAAAAAAAAAAAAAACFAAAAAAAAAAAAAAAAAAIZTS0AAAAAEMxqqAAAAAAQFAAAAAAAAAABCggKAAAAAAAAAAAAAAAAAAAAAAAAAAAAAAAAAAAAAAAAAZKUAAAAAAAAAAAAAAAAAAAAAAAAAAAAAAAAAAAAAAAAAAAAAAAEKAAAAAACAoAAAAAAAAAAAAAAICgAHM6AEKAAAAAAAAAAAAAAAAAAAAAAAAAAAAAAAAAAAAQFAAAAAAAAAAAAAAAAAAAAAAAAAAAAAAAAAAAAAAAAAAAAAAAAAAAAAAAAAAABg0UAAAAAhQAAAAAAAADkdCgAAAAAAAAAAAAAAAAAAAAAAAAAAAAAAAAAAAAAAAAAAAAAAAAAAAAAAAAAAAAAAAAAAAAAgKAAAAAAAAAAAAAAAAAAAAAAAAAAAQoAAAAAAAAAAAAAAAAAAAAAAAAAAAAAAAAAAAAAAAAAAAAAAAAAAAAAAAAAAAAAAAAABk0AAAAAAQyaKAAAAAAAAAAAAAAACAoAAAAAAAAAAAAAAAAAAAAAAAAAAICgAAAAAAAAAAAAAAAAAAAAAAAAAAAAAAAAAAAAAAAAAAAAAAAAAAAAAAAAAAAAAAAAAGTQAAAAABCGgAAQoAAAAAAAAAAAAAAAAAAAAAAAAAAAAAAAAAAAAAAAABCgAAAAAAAAAAAAAAAAAAAAAAAAAAAAAAAAEBQAAAACAoAAAAAAAAAAAAAAAAAAAAAAAAAAAAAAAAAAAAAAAAAAAAAAAAAAAAAAAAAAAAAAAAAAAAAAAAAAAAAAAAAAAAAAAAAAAAAAAAAAAAAAAAAAAAAAABAUAAAAAgKAAAAAAAAAAAAAAAAAAAAAAAAAAAAAAAAAAAAAAAAAAAAAAAAAAAAAAAAAAAAAAAAAAAAAAAAAAAAAQFAAAAAAAAAAAAAAAAAAAAAAAAAAAAAAAAIZNgAAAAAAAAAAAAAAAAAAAAAAAAAAAAAAAAAAAAAAAAAAAAAAAAAAAAAAAAAAAAAAAAAAAAAAAAAAAAAAAAAAAAAAAAAAAAAAAAAAAAAAAAAAAAAAAAAAAAAAAAAAAAAAAAAAAAAAAAAAAAAAAAAAAAAAAAAAAAAAAAAAAAAAAAAAAAAAAAAAAAAAAAAAAAAAAAAAAAAAAAAAAAAAAAAAAAAAAAAAAAAGTQAAAICkBQAAAAAAAAAAAAAAAAAAAAAAAAAAAAAAAAAAAAAAAAAAAAAAAAAAAAAAAAAAAAAAAAAAAAAAAAAAAAAAACFAAAAAAAAAAAAAAAAAAAAAAAAAAAAAAAAAAAAABCGgAAAAAAAAAAAAAAAAAAAAAAAAAAAAAAAAAAAAAAAAAAAAAAAAAAAAAAAAAAAAAAAAAAAAAAAAAAAAAAAAAAAAAAAAAAAAAAACFAAAAAAAAAAAAAAAAAAAAAAAAAAAAAAAAAAAAAAAAAAAAAAAAAAAAAAAAAAAAAAAIUAAAAAAAAAAAAAAAAAAAAAAAAAAAAAAAAAAAAAAAAAAAAAAAAAAAAAAAhQAAAAAAAAAAAAAAAAAAAAAAAAAAAAAAAAAAAAAAAAAAAAAAAAAAAAAAACFAAAAAAAAAAAAAAAAAAAAAAAAAAAAAAAAAAAAAAAAAAAAAAAAAAAAAAAAAAAAAAAAAAAAAAAAAAAAAAAAAAAAAAAAAAAAAAAAAAAAAAAAAAAAAAAAAAAAAAAAAAAAAAAMGwAAAAAAAAAAAAAAAAAAAAAAAAAAAAAAAAAAAAAAAAAAAAAAAAAAAAAAAAAAAAAAAAAAAAAAAAAAAAAAAAAAAAAAAAAAAAAAAAAQQqgAAAAAAAAAAAAAAAAAAAhQAAAAAAAAAAAAAAAAAAAAAAAAAAAAAAAAAAAAAAAAAAAAAAAAAAAAACFAAAAAAAAAAAAAAAAAAAAAAAAAAAAAAAAAAAAAAAAAAAAAAAAAAAAAAAAAAAAAAAAAAAAAAAAAAAICgAAAAAAAAAAAAAAAAAAAAAAAAAAAAAAAAAAAAAAAAAAAAAAAAAAAAAAAAAAAAAAAAAAAAAAAAAAAAAAAAAAAAAAAAAAAAAAAAAAAAAAAAAAAAAAAAAAAAAAAAAAAAAAAAAAAAAAAAAAAAAAAAAAAAAAAAAAAAAAAAAAAAAAAAAAAAAAAAAAAAAAAAAAAAAAAAAAAAAAAAAAAAAAAAAAAAAAAAAAAAAAAAAAAAAAAAAAAAAAAAAAAAAAAAAAAAAAAAAAAAAAAAAAAAAAAAAAAAAAAAAAAAAAAAAAAyUoAAAAAAAAAAAAAAAAAAABCgAAAAAAAAAhQAAAAAAAAAAAAAAAAAAAAAAAAAAAAAAAAAACFAAAAAAAAAAAAAAAAAAAAAAAAAAAAAAAAAAAAAAAAAAAAAAAAAAAICgAAAAAAAAAAAAAAAAAAAAAAAAAAAAAAhQAAAAAAAAAAAAAAAAAAAAAAAAAAAAAAAAADJSGgAAAAAAAAAAAAAAAAAAAAAAAAAAAAAAAAAAAAAAAAAAAAAAAAAAAAAAAAAAQFAAAAAAAAAAAAAAAAAAAAAIUAAAwaKAAAAAAAAAAAAAAAAAAAAAAAAAAAAAAACFAAAAAAAAAAAAAAAAAAAAAAAAAAAAIUAAAAAAAAAAAAAAAAAAAAAAAAAAAAAAAAAAAAAAAAAAAhQAAAAAAAAAAAAAAAAAAAAAAAAAAAAAAAACFAAAAAAAAAAAAAAAAAAAAAAAAAAAAAAAAAAAAAAAAAIUAAAAAAAAAAAAAAAAAAAAAAAAAAAAAAAAAAAAAAAAAAAhQAAAAAZNAAAAAgKAAAAAAAAAAAAAAAAAAAAAAAAAAAAAAAAAAAAAAAAAAAAAAAAAAAAAAAAAAAAAAAAAAAAAAAAAAAAAAAAAAAAAAAAAAAAAACAoAAAAAAAAAAAAAAAAAAAAAAAAAAAAAOJ1KAAAAAAAAAAAAAAAAAAAAAAAAAAAAAAAAAAAAAAAAAQoAAAAAAAAAAAAAAAAAAAAAAAAAAAAAAAAAAAAAAAAAAAAAICgAAAAAAAAAAAAAAAAAAAAAAAAAAAAAAAAAAAAAAAAAAAAAAAAAAAAAAAAAAAAAAAAAAAAAAAEKAAAAAAAAAAAAAAAAAAAAAAAAAAAAAAAAAAAAAAAAAAAAAAAAAAAAAAAAAAAAAAAAAAAAAAAAAAAAAAAAAAAAAAAAAAAAAAAAAAAAAAAAAAAAAAAAAAAAZNAAAAAAAAAAAAAAAAAAAAAEKAAAAAAAAAAAAAAAAAAAAAAAAAAAAAAAAAAAACFAAAAAAAAAAAAAAAAAAAAAAAAAABAUAAAAAAAAAAAAAAAAAAAAAAAAAAAAAAAEKAAAAAAAAAAAAAAAAAAAAAYNgAAAAAAAAAAAAAAAAAAAAAAAAEBQAAAAAAAAAAAAAAAAAAAAAAAAAAAAAAAAAAAAAQFAAAAAAAAAAAAAAAAAAAAAAAAAAAAAAAAAAAAAAAAAAAABAUAAAAAAAEKAAAAAAAAAAAAAAAAAAAAAAAAACFAAAAAAAAAAAAAAAAAAAAAAAAAAAAAAAAAIUAAAAAAAAAAAAAAAAHE7AAAAAAAAAAAAAAAAAAAAAAAAAAAAAAAAEBQQyaKAAAAAAAAAAAAAAAAAQhoAAAAAAAAAhDQAAAAAAAAAAAAAAAAAAAABCGgAAAAAAAAAAAAAAAAAAAAAAAAAAAAAAAAAAAQFAAAAAAAAAAAAAAAAAAAAAAAAAAAAAAAAAAAAAAICgAAAAAgKAAAAACAoAAAAAAAAAAAAAAAAAAAAAAAAAAABAUAAAHM6AAAAAAAAAAAAAAAAAAAAAAAAAAAAAAAEMmwAAAAAAAAAAAAAAAAAAAAAAAAAAAAAAAAAAAAADJSgAAAAAAAAAAAAyUoAAAAAAAAAAAAAAAAAAAAAABkpQAAAAAAAAQpCgAAAAAAAAAAAAAAAAAAAAAAAAAAAAAAAAAAAAAAAAAAAAAAAAAAAAAAAAAAAAAAAAAhxOxQAAACFAAAAAAAAAAAAAAAAAAAAAAAAAAAAAAAAAAAAAAICgAAAAAAEKAAAAAAAAAAAAAAAAAAAAAAAAAAAAAAAAAAAAAAAAAAAAAAAAAAAAAAAAAAAAAAAAAAAAAAAAAACFAAAAAAAAAAAAAAAAAAAAAAAAAAAAAAAAAAAICgAAAAAAAAAAAAAAAAAAAAAAAAAAAEBQAAAAAAAAAAAAAAAAAAAAAAAAAAAAAAAAAAAAAAAAAAAAAAAAAAAACFAAAAAAAAAAAAAAAAAAAAAAAAAAAAAAAAAAAAAAAAAAAAAAAAAAAAAAAAAAAAAAAABAUAAAAAAAAAAAAAAAAAAGSlAAAAAAAAAAAAAAAAAIcTuAAAAAAAAAAAAAAQoAAAAAAAAAAAAAAAAAAAAAAAAAAAAAAAAAAAAAAAAAAAAAAAAAAAAAAAAAAAAAAAAAAAAAAAAAAAAAAAAAAAAAAAAAAAAAAAAAAAAAAAAAAAAAAMlKAAAAAAAQFAAAAAAAAAAAIUAAAAAAAAAAEBQAAAAAAAAAAAADkdQAAAAAAAAAAAAAAAAAAAAAAAAAADJoAAAAAAAAAAAAAAAAAAAAAAAAAAAAAAAAAAAAAAAAAAAAgKAAAAAAAAAAAAAAAAAAAAAAAAAAAAAAAAAAAAAAAAAAAAAAAAAAAAAAAAAQoAAAAAAAAAAAAAABAUAAAAAAAAAAAAAAAAAAAAAAAAAAAAAAAAAAAAAAAAAAAAAAAAAAAAAAAAAAAAAAAAAAAAAAAAAAgKAAAAAAAAAAAAAAAAAAAAADkdCgAAAEKAAAAAAAAAAAAAAAAAAAAAAAAAAAAAAAAAAAAAAAAAAAAAAAAAAAAAAAAAAAAAAAAAAAAAAAAAAAAAAAAAAAAAAAAAAAQoAAAAPGesoAAAAAAAAAAAAAABkoKAAAAAAAAAAAAAAAAAAAAAAAAAAAAAAAAAAAAAAAAAACGDoAAAAAAAAAAAAAAAAAAAAAAAAAAAAAAAAAAAAAAAAAAAAAAAAAAAAAAAAAAAAAAAAAAAAAAAAAAAAAAAAAAAAAAAAAAAAAAAAAAAAAAAAAAAAAAACFAAAAAAAAAAAAAAABAUAAEKAAAAAAAAAAAAAAAAAAAAAAAAAAAAAAAAAAAAAAAAAAAACFAAAAAABAUAAAAAAAAAAAAAAAAAAAAAAAAAAAAAAAAAAAAAAAAAAAAAhQAAAAAAAAAAAAAAAZKUAAAAAAAAAAAAAAAAAAAAAAAAAAAAAAAAAAAAAAAAAAAAAAAAEKAAAAAAAAAAAAAAAAAAAAAAAAAAAAAAAAACFAAAAAAAAAAAAAAMmgAAAAAAAAAAAAAAAAAAAAAAAAAAAAAAAAAAAAAAAAAAAAAAAAAAAAAAAAAAACAoAAAAAAAAAAMmgAAAAAAAAAAAAAAAAAAAAAAAAAAAAAACFAAAAAAAAAAAAAAMmgAAAAAAAAAAAAQFAAAAAAAAAAAAAAAAAAAAAAAAAAAICgAEKAAAAAAAAAAAAAACAoAAAAAAAAAAOZ0AAAAAAAAAAAAAAAAAAAAAAAAAAAAAAAAAAICgAAAAAAAAAAAAAAAhQAAAAAAAQFAAAAAAAAAAAAAAAAAAAAAAAAAAAAAABCgAAAAAAAAAAAAAAAAAAAAAAAAAAhQACFAAAAAAAAAAAAAAAAAAAAAAAAAAAAAAAAAAAAAAAAAAAAAAAAMmgAAAAAAAAAAAAAAAAAAAAAAAAAAAAAAAAAAAAAAAAAAAAAAAAAAAAAAAAAAAAAAAAAAAAACFAAAAAAAAAAAAAAAAMmgAAAAAAAAAAAAAAAAAQFAAAAAAAICgAAAAAAAAAAAAAAAAAAAAAAAAAAAAAAAAAAAAAAAAAAAAAAAAAAEIaAAAAAAAAAAAAAAAAAABkpQAAAAAAAAAAAAAAAAAACFAAAAAAAAAAAAAAAAAAAIUAAAAAAEKAAAQFAAAAAABAUAAAAAAAAAAAAAAAAAAAAAhk2AAQybAAAAAAAAAAAAAAAAAAAAAAAAAAAAAAAAAAAAAAAAAAAAAAAAAAAAAAAAAAAAAAAAAAAAAAAAAIUAAAAAAAAAAEMHQAAAAAAEBQAAAAAAAAAAAAAAAAAAAAAQoABCGgAAAAAAAAAAAAACFAAAAAAAAAAAAAAAAAAAAAAAAAAAAAAAAAAAAAAAAAAAAAAAAAAAAAAAAAAAAAAAAAABk0AAAAAAAAAAAAAAAAAAAAAAAADJSgAAAEKAAQoAAAAAAAAAAAAAAAAAIUAAAAAAAAAAAAAAAAAAAAAAAAAAAAAAAAAAAAAAAAAAAAAAhk0CgAAAAAAAAAAAAAAAAAEKAAAAAAAAAAAAAAAAAAAAAAAAAAAAAAAAAAAAAAAAAAAAAAAAAAAAAAAAAAAAAAAAAAAAAAAAZNAAAAAAAAAAAAAAAAAAAAAAAAAAAgKAAAAAAAAAAAAAAAAAAAAAAAAAAAAAAAAAAAAAAAAAAAAAAAAAAAAAAAAAAAAAAAAAAAAAAAAAAADJoAAEKAAAAAAAAAAAQoAAAAAAAAAAAAAAAAAAAAAAAAAAAAAAAAAAAAAAAAAAAAAAAAAAAAAAAAAAAAAAICgAAAAAAAAAAAAAAAAAAAAAAAAAAAAAAAAAAAAAAAyaAAIQ0AAAAAAAAAAAAAAAAAAAAAAAAAAAAAAAAAAAAAAAAAAAAAAAAAAAAAAAAAAAAAAAAAAAAAAAAAAAAAAAAAAAAAAAAAAAAAAAAAAAAAAAAAAAAACFAAAAAAAAAAAAAAAAAAAAAAAAAAAAAAAAAAAAAAAAAAAAAAAAAAAAAAAAAAAAAAAAAAAAAAAAAAAAAAAAAAAAAAAAAAAIUAAAAAAAAAAAAAAAAAAAAAAAAAAAhQAAAAAAAAAAAAAAAAAAAAAAAAAAAAAAAAAAAQFAAAAAAAAAAAAAAAAAICgAAAAAAAAAAAAAAAAAAAAAAAAAAAAAAAAhDQAAAAAAAAAAAAAAAAAAAAAAAAAAAAAAAAAAAAAAAAAAAAAAAAAAAAAAAAAAAAAAAAABAUAAAAAAAAAAAAAAAAAgKAAAAAAAAAAAAAAAAAAAAAAAAAAAAAAAACAoAAAAAAAAAAAAAAAAAAAAAAAAAAAAAAAAAAAAAAAAAMmgAAAAAAAAAAAAAAAAAAAAAAAAAAAAAAAAAAAAAAAAAAAAAAAAAAAAAAAAAAAAAAAAAAAAAAAAAAAAAAAAAAAAAAAAAAAAAAAAAAAAAAAAAAAAAAAAAAAAAAAAAAAAAAAAAAAAAAAAAAAAAAAAAAAAAAAAAAAAAAAAAAAAAAAAAAAAAAAAAAAAAAAAAAAAAAAAAAAAAAAAAAQFAAAAAAAAAAAAAAAAAAAAAAAAAAAAAAAAAAAAAAAAAAAAAAAAAAAAAAAICgAAAAAAAAAAAAAAAAAAAAAAAAAAAAAAAAAAAAAAAAAAAAAAAAAAAAAAAAAAAAAEBQAAAAAAAAAQFAAAAAAAAAAAAAAAAAAAAAAAAABCgAAAAAAAAAAAAAAAAAgKAAAAAAAAAAAAAAAAAAAAAAAAAAAAAAAAAAAAAAAAAAAAAAAAADJoAAAAAAAAAAAAAAAAAAAAAAAAAAAAAAAAAAAAAAAAAAAAAAAAAEBQAAAAAAAAAAAAAAAAAAAAAAAAAAAAAAAAAAAAAAAAAAQoAAAAMGwAAAAAAAAAAAAAAAAAAAQoAAAAAAAAAAAAAAAAAAAAAAAAAAAAABCgAAAAAAAAAAAAAAAAAAAAAAAAAAAAAAAAAAEBQAAAAAAAAAAAAAAAZKUAAAAAAAAEKAAAACFAAAAAAAAAAABkpQAAAAAAAAAAAAAAAAAAAAAACAoAAAAAAAAAAAAAAAAAAAAAAAAAAAAAAAAAAAAAAAAAAAAAAAAAAAAAAAAABAUAAAAAAEBQAAAAAAAAAAAAAAAAAAAAAAAAAAQFABk5nYAAAAAAAAAAAEKAAAAAAACAoAAAAAAAAAAAAAAAAAAAAAAAAAAAAAAAAAAAAAAAAAAAAAAAAAAAAAIQ0AAAAAAAAAAZBoAAAhQAAAAAAAAAAAAAAAAAAAAAAAAAAZKUAAAAAAAAAAAHA7gAAAAAAAAAAAAAAAAAAAAAAAAAAAAAAAAAAAAAAAAAAAAAAAAAAAAAAAAAAAAAAgKAAAAAAAAAAZKUAAAhQAAAAAAAAAAAAAAAAAAAAAAAAAAAAAAAAAAAAAAAQoAAAAAAAAAAAAAAAAAAAAAAAAAAAAAAAAAAAAAAAAABDJsAAAAAAAAAAAAAAAAAAAAAAAAAAAAAAAAAAAAAAAAAAAAAAAAAAAAAAAAAAAAAAAAAAAAAAAAAAAAAAAAAAAAAAAAAAAAAAAAAAAAAAAAAAAAAAAAEBQAAAAAAAAAAAAAAAAAAAAAAAAAAAAAAAAAAAAAAAAQoAAAAAAAAAAAAAAAAAAAAAAAAAAAAAAAAAAAAAAAAAAAAAAAAAAAAAAAAAAAAAAAAAAAAAAAAAAAABCgAAAAAAAAAAAAAAAAAAAAAAAAAAAAAAAAAAAAAAAAEKAAAAAAAAAAAAAAAAAAAAAAAAAAAAAAAAAAAAAAAAAAAAAAAAAAAAAAAAAAAAAAAAAAAAAAAAAAAAAAAAAAAQFAAAAAAAAAAAAAAAAAAAAAAAAAAAAAAAAAAAAAAAAAAAAAAAAAAAAABCgAAAhQAAAAAAAAAAAAAAAAAAAAAAAAAAAAAAAAAAAAAAAAAAAAAAAAAAAAAAAAAAAQFAAAAAAAAAAAAAAAAAAAAAAAAAAAAAAAAAAAAAAAAAAAAAAAABCGgAAAAAAADBsAAAAAAAAAAAAAAAAAAAAAAAAAAAAAAAAAAAAAAAAAAAAAAhk0UAAAAAAAAAAAAAAAAAAAAAAAAAAAAAAAAAAAAAAAAAAAAAAAAAAAAAAAAAAAAAEBQAAAAAAAAAAAAAAAAAAAAAAAAAAAAAAAAAAAAAAAAAAAAAAAAAAAAAACAFABCgAAAAAAAAAAAAAAAAAAAAAAAAAAAAAAAAAAAAAAAAAAAAAAAAAAAAAAAAAAAAAAAAAAAAAAAAAAAAAAAAAAAAAAAAAAAAAAAAAAAAAAAAAAAAAAAAAAAAAAEBQAAAAAAAAAAAAAAAAAAAAAAAAAAAAAAAAAAAAAAAAAAAAAQFAAAAAAAAAAAAAAAAAAAAAAAAAAAAAAAAAAAAAAAAAAAAAAAAAAAAAAAAAAAAAAAAAAAAAAAAAAAAAAAAAAAAAAAAAAAAAAAAAAAAAAAAAAAAAAAAAAAAAAAIUAAAAAAAAAAAAAAAAAAAAAAAAAAAAAAAAAAAAAgKAAAAAACFAAAAAAAAAAAAAAABCgAAAAAAAAAAAAAAAAAAAAAAAAAAAAAAAAAAAAAAAAAAAAAAAAAAAAAAAAAAAAAAAAAAAAAAAAAAAAAAAAAAAAAAAAAAAAAAAAAAAAAAAAAAAAAAAAAAAAAAGcrpQAAAAAAAAAAAAAAAAAAAAAACAoAAAAAAAAAAAAAAAAAAAAAAAAAAAAAAAAAAAAAAAAAAAAAAAAAAAAAAAAAAAAAAIcjsAAAAAAAAAAAAAAAAAAAAAAAAAAAADBopCgAAAAAAAAAAAAAAAAAAAAAEBQAAAAAAAAACFAAAAAAAAAAAAAAAAAAIUAAAAAAAAAAAAAAAAAAAAAAAAAAAAAAAAAAAAAAAAAAAhQAAAAAAAAAAAAAAAAAAADBooAAAAABCgAhQAAAAAAAAAAAAAAAAAAAAAAAADBsAAAAAAAAAAAAAAAAAAhQAAAAAAAAAAAAAAAAAAAAAAAAAAAAAAAAAAAAAAAAAACFAAAAAAAAAAAAAAAAAAAAAAAAAAABCgAgKAAAAAAAAAAAAAAAAAAAAAAAAAAAAAAAAAAAAAAAAAAACGDoAAAAAAAAAAAAAAAAAAAAAAAAAAAAADJoAAAAAAAAAAAAAAAAAAAAAAAAAAAAAAAAAAAAAAAAAAAAAAAAAAAAAAAAAAAAAAAAAAAAAAAAAAAAAAAAAAAAAAAAAAAAAAAAAAgKAAAAAAAAAAAAAAAAAAAAAAAAAAAAAAAAAAAAAAAAAAAAACAoAAAAAAAABk0AAAAAAAAAAAAAAAAAAAAAAAAAAAAAAAAAAAAAAAAACAoAAAAAAAAAAAAAAAAAAAAAAAAAAAAAAAAAAAAAAAAAAAAAAAAAAAAAAAAAAABzOhCgAAAySN0AAAAAAAABCgAEIaAAAAAAAAAAAAAAAABCgAAAAAAAAAAAAAAAAAAAA5myghQAAAAAAAAAAAAAAAAAAAAACAoAAAAAAAAAAAAAAAAABAUAAAAAAAHI6FAAAAAIQ0QpCgAAAgKAAAAQAoAAAAAAIUAAAAAAAAAAAAAAAAEBQAAAAAAAAAAAAAAACAoAAAAOB3AAAAAAAAAAAAAAAAAAAAICghDQAAAAAAAAAAAAAAAAAAAAAAAAAAAAAAAAAAAAAAAAAAAAABDBsoAAAAAAAAAAAAAAAAAAAAAAAAABAUAAAAAAAAAAAAAAgKAAAACFAAAAAAAAAAAAAABCgAAAAgKAAAAAAAAAAAAAAAAAAAAAAAAAAYKaAAAAAAAAAAAAAAAAAAAAAAAAAAAAAAAAAAAAAAAAAAAAAAAAAAAAAAAAAAAAAAAAAAAAAAAAAAAAAICgAAAAAhk2AAAAAAAAAAAAAAAAAAAAAAAAAAAAAAAAAAAAAAAAAAAAAAAAAAAAAAAAAAAAAAAAAAAAAAAAAAAAAAAAAAAAAAAAAQFAAAAICgAAAAAAAAAAAAAhQDJSgAAAAAgKAAAAAAAAAAAAAAAAAAAAAAAACENAAAAAAAAAAAAAAAAAAAAAAAAAAAAAAAAAAAAAAAAAAAAAAAAAAAyaAAAAAAAAAAAAAAAAAICgAAAAAAAAAAAAAgKAAAAAAACHA9AAAAAAAIUAAAAAAAAAAAAAAAAAhk2AAAAAAAAAAAAAAAAAAAAAAAAAAAAAAAAAAAAAAAAAAAAAAAAAAAAAAAAAAAAAAAAAAAAAAAAAAAAAAAAAAAAAAAAAADJoAEKAAACFAAAAAAAAAAABAUAAAAAAAAAAAAAAAAAAAAAAAAAAAAAAAAAAAAAAAAAAAAAAAAAAAAAAAAAAAAAAAAAAAAAAAAAAAAAAAAAAAAAAAAAAAAAAAAAAAhQAQoAAAIUAAAAAAAAAAAEKAAAAAAAAAAAAAAAAAAAAAAAAAAAAAAAAAAAAAAAAAAAAAQoAAAAAAAABg2AAAAAAAAAAAAAAAAACFAAAAAAAAAAAAAAAAAAAAAAAAAAAAAAAAIUAAAAAAAAAAAAAAAAAAAAAAAAAAAAAAAAAAAAAAAAAAAAAAAAAAAAAAhQAAAAAAAAAAAAQoAAAAAAAAAAAAAAAAAMlKQoAAAAAAAAAAAAAAAAAAAAAAAAABCgAAAAAAAAAAAAAAAAAAAAAAAAAAAAAAAAAAAAAAAAAAAAAAAAAAAAAAAAAAyaAAAAAAAAAAAAAAAAAAAAAAAAAAAAAAAABCgAAAAAAAAAAAAAAAAAAAAAAAAAGSlAAAAByOoAAAAAAAAAAAAAAAAAAAAAAAAAAAAAAAAAAAAAAAAAAAAAAAAAAAAAAAAAAAAAAAAAAAAAAAAAAAAAAAAAAAAAAAAAAAAAICgAAAAAAAAAAAAAAAAAAAAAAAAAAAAAAAAAAAAAAAAAAAAAAAAAAAAAAAAAAAAAAAAAAAAgKAAAAAAAAAAAAAAAAAAAAAAAAAAAAAAAAAAAAAAAAAAAAAAAACAoAAAAAAAAAAAAAAAAAAAAAAAAAAAAAAAAABAUAAAAAAAAAAAAAAAAAAAAAAAAAAAAAAAAAAAAAAAAAAAAAAAAAAAAAAAAAAAAAAAAAAAAAAAAAAAAAAAAAAAAAAAAAAAAAAAAAAAAAAAAAAAAAAAAAAAAAAGTQAAAAAAAAAAAAAAAAAAAAAAAAAAAAAAAAAAAAAAAAAAAAAAAAAAAAAAAAAAAAAAAAAAAAAAAAAAAAAAAAABCgAAAAAAAAAAAAAAAAAAAAAAAAEKAAAAAAAAACFAAAAAAAAAAAAAAAAAAAAAAAAAAAAAAAAAAAAIUAAAAAACFAAAAAAAAAAAAAAAAAAAAAAAAAAAAAAAAAAAAACHhPeAAAAAAAAAAAAAAAAAAAAAAAAAAAAAAAAAAADJoAAAAAAAAAAAAAAAAAAAAAAAAAAAAAAAAAAAAAAAAAAAGcpGtqAAAAAAAAAAAAAAAAAAAAAAAAAAAAAAAAAACAoICgAAAAAAAAAAAAAAAAAAAAAAAAAAAAAAAAAAAAAAAAAAAAAAAAAAAAAAAAAAAAAAAAAAAAAAhQAAAAAAACGMNVdKAAAAAAAQoAAAAAAAAAAAAAAAAAAAAAAAAAAICgAAAAAAAAAAAAAAAAAAAAAAAAAAAAAAAAAAAAAAAAAAAAAAAAAAAAAAAAAAAAAAAAAAAAAAAA5mygAAAAAAAEhVAAAAAAABg2AAAAAAAAAAAAAAAAAAAAAAAAAAAAAAADJoAAAAAAAAAAAAAAAAAAAAAAAAAAAAAAAAAAAAAAAAAAAAAAAAAAAAAAAAAAAAAAAAAAAAAAAAAAAAAAAAAAAAAAEKAAAAAAAAAAAAAAAAAAAAAAAAAAAAAAAQFAAAAAAAAAAAAAAAAAAAAAAAAAAAAAAAAAAAAAAAAAAAIUAAAAAAAAEBQAAAAAAAAAAAAAAAAAAAAAAAAAAAAAAAAAAAAAAAAAAAAAAAAQoAAAAAAAAAAAAAAAAAAAAAAAAAAAAAAAAAAAAAAAAAAAAAAAAAAAAAAAAAAAIDkdgAAAAAAAAAAAAAAAAAAAAAAAAAAAAAAQoAAAAAAAAAAAAAAAAAAAAAAAAAAAAAAAAAAAAAAAAAAAAAAMmgAAAAAAAAAAAAAAAAAAAAAAAAAAAAAAAAAAAACGTRQQFAAAAAAAAAAAAAAAAAAAAAAAAAAAAAABk0AAAAAAAAAAAAAAAAAAAAAAAAAAAAAAAAAAAAAAAAAAAAAAAAAAAAAAAAAAAAAAAAAAAAAAAAAAAAAAAAAAAAAQFAAAAAAAAAAAAAAAAAAAAAAAAAAAAAAAAAAAAAAAAAAAAAAAAP/xAArEAABAgQEBQQDAQAAAAAAAAABAhESYHCAAyFQkAATMUCgBCIwQQUQIDL/2gAIAQEAAQUCqcEsaytnZy/aB2oCcVCcQFxK6g6cLBGFRb8lgHH9Ij/OyqFBVAz1mxKAjxiRS4gKFavvwESHtOAbuXsTXE1HlKhShQWmt6UBA0YlcdQXz32lKCbxAXmZs5DU7CxNYUU6I9jYWkqp7EAZhAb51KhTPzUYUmKpCiw0DESpQtMf583rA20Yl22ukvDuRuYvA/Jt2P6ApZm96D2E4gWpO6V91eGYpYAsKkbN9FEhAvXkqAMgBIEnEP3jaiaOcsc3abOjISsYlfFFhLoijvrWsYYqbj4eJiJnk9EGJN+JANR3D3Agg7VAqaOv9JUFClaEwJsbNFc34GdOHvBIB/sPtAAg2iv4E0XuqgT2jaIchTfrrxLBC4xRh+2JA4BBGvEOO5RHRZn4amA6+BGC/ZJBAl58/FTBXzNafOt5DyQ3usWS7W6vVAKdXxHol4e6BBEmrTEJqUW1dmlL383ThkJeAU9QlORStJcVgPSQgXmf7lTCw+WNTCQkU2drh4hFYoRTBp5PyAqj242uW9MfUE0h6cAvW8h+AGkkUTKQVaI/ukA7HWGuOjz5yZ92pf/EABcRAAMBAAAAAAAAAAAAAAAAABFwkOD/2gAIAQMBAT8BZx3/AP1j/8QAHREAAgIBBQAAAAAAAAAAAAAAAREAAnASQaDA4P/aAAgBAgEBPwHJplKafUC+/UoCVBZ5vIcAXG6//8QALRAAAQIDBgUDBQEAAAAAAAAAAREhAjFwEiJggJCgAEFQUWEDMnETIDBAgbH/2gAIAQEABj8CqctZlynPQKGAxXopDDJAKcEziMzRaKz7obw4HxorFDKgc8WsNxuh3JZyWXEXzR8lF4UVwSEADx0eFIbvMrKoSa7b820KlwIwU8PkTuFD5GUCyrjlT4BXOIp/nX/Mi4mxWpCovx0G7HZfZkvpdhWOpIAjd9ts2sRcjsnui7NeK1EoMgks1ABM5YBajclo59R1RJ6YUZijWE+0JKvrBcPFTd5Z7FPdJVOEPp+p9N3PjHYKELyOfJxUdFfME2rqW+9QaWWQv9ObHxo9uF+99IBjta7L5Ce9dl4VGpe/CjDJthHbKOdhs5XD6bVQqIbHLv1tMnCqfjIven40RiELfjbgWp/tsVwchxWGJU8urthI+2wjd+nvh8qQnKobFKWKiVhav5vGJYlfqiQhB40PrKvolEWW7rseoz64EN66B2wTPQmBIcS6KiaPZumFCj1rn/Mqf//EACsQAQABAgUEAgICAgMAAAAAAAERITEAQVBgcEBRYYAwcSCQEIGRobHB0f/aAAgBAQABPyHkSfhcCud6matOTYWK9/TqCxn0bjKAZyeAizEr3ovgASzrSOUdc0wHPFaG/wC7wsB0VD6x/ptuvroM5cCvAGUPjgOUGQGXfYUkxpTjLqbubxyk3xb44rPAYztMZ9mXAQe74jbeoQrrCxsONTclI5YN3rDvsVRFO/7q1g051mBDzUu43B0pqzVnqYSk1OcIrof2kf1z4frSgWL4EW3nCtmlgaOQiVNo9lM9tkvbo4rtSHkN2BBwSTn72zzgAWPhNFXQ+8Fub02VNY4Ka4jxuaGZ/nYiDe0ExiUd3omgBy2Q0UkpCR6NoSWsyqcfKqCwTfcVfU1z+cGYoZCXAyT85avTzXbCFHM4YGoiChjZ5vmTkhkK4NABiMCoDJ2wepjB+eezEaE6w4OBkKKDFvHzmc+x6Sc2uOyz49vmcviOcnFgkFQZjkKa84RWfXJgE1Myt77n6SYEO/BE8UBGexpRZPn+IJqss14sudsvWyK7luDvyZfXYRWjwP0XrD6OE0xSL8vLBOFA9+LWoXUoQ/72PatGejKck++kZwTpixgJRkxsqeL4WC4HfYNpRLOzqOqQzR6xCi5aikJPo4czuenZH1tlY9K2m7UG/FYUgY+sGihgiWXnXPn1FZBY74GehLVZ1A6yyiogFTvrDc9tDs8IoTf6wcmtxooFfA0GKztmjuwqrROYcwzGgrGCvJ0aDAQMMk8j5WomN9LBOBnp5rG3orPCTrKYY30AW5eit+MGZOIE56O3niZMSgM+/wCdX4txYJIg8j0BOepxiOungeaxqagkJwarG37MRRXv/CgP/PHEJjPlGa84Q8EGSTP8mYpfFAonOPc2K8ZiyCTFOBnBaui57EKbVAsdv1EH3yssblbYLbihalEzFP8APKMGCp0aFnt8cdS2QPocUPQICEkcBBBroIrGKBRknhkkpCR/vpgVUBdcCkkaia/IHfAQR1LUwqQO3CyBCSOABAR8EcUBEWRy7cxrH6Wo+Gd9AFtxrBiookMV6K4N3iNvx80T7zJP6vM9ReAWwyBManOdbSBNXd0nAQ3GyP69HZ96NHONFR3ZNdmvpygQc9qrG+6AlFUo/XxzlRMUnE9BRWO/SR+c6AeNnDWIkaMW3WrjTHh5cHyk9TPQAEADxtIJi9kmr/zSlj8SgKWKsX284BMMgLchhJL7hbBxU2xAySybnIAyToIVihijFsFCvyuDU5wIEhHtueWBtRxH5zNyzlqhcpWBAcbohObHOEfNnwTlSiYzjnCDRZIrHGDLON8yyY+RTIEpnP17XBC+fTZDE5eywa7ZKARbu3jbKwnA2cuSTE9HZqxgBBshtTEorfhMYjdRbRZdpF52CmkRes8Xx7E5/wAKWznyRn9cPIATe2zWa+zAtsN9D//aAAwDAQACAAMAAAAQAAAAAAAAAAAAAAAAAAAAAAAAAAAAAAAAAAAAAAAAAAAAAAAAAAAAAAAAAAAAAAAAAAAAAAAAAAAAAAAAAAAAAAAAAAAAAAAAAAgAAAEsAAAAAAAAAAAAAAAAAAAAAAAEAAAAAAAAAAAAAAAAAAAAAAAAAAAAAAAEAAAAAAAAAAAAAAAAAAAAAAAAAAAAAAAAAAAAAAAAAAAAAAAAAAAAAAAAAAgAAAEgAAAAAAAAAAAEAAAAAAAAAAAEAAAAAAAAAAAAAAAAEgAAAAAAAAAAAAAAAAAAAAAAAAAAAAAAAAAAAAAAAAAAAAAAAAAAAAAAAAAAAAAAAAAAAAAAAAAAAAAAAAAAAAAAAAAAAAAEAAAAAAAAAAAAAAGwAAAAAAAAEAAAAAAAAAAAAAAAAAAAAAAAAAAAAAAAAAAAAAAAAAAAAAAAAAAAAAAAAAAAAAAAAAEAAAAAAAAAAAAAAAAAAAAAAAAAAAAAAAAAAAAAAAAAAAGoAAAAAAAAAAAAAAAAAgAAAAAAAAAAAAAAAAAAAAAAAAAAAAAAAAAAAAAAAAAAAAAAAAAAAAAAAAAAAAAAAAAAAAAAAAAAAAAAAAAAAAAAAAAAAAAAAAAAAAEAAAAAgAAAEgAAAAAAAAAAAAAAAAAAAAAAAAAAAAAAAAAAAAAAAAAAAAAAAAAAAAAAAAAAAAAAAAkAAAAAAAAAAAAAAAAAAAAAAAAAAAAAAAAAAAAAAAAAAAAAAAAAAAAAEgAAAAAAAAAAAAAAAAAAAAAAAAAAAAAAAAAAAAAAAAAAAAAAAAAAAAAAAAEAAAAAAAAAAAAAAAAAAAAAAAAAAAAAAAAAAAAAAAAAAAAAAAAAAAAAAAAAgAAAAAAAAyAAAAAAAAAAAAAAAAAAAAAAAAAAAAAAAAAAAAAAAAAAAAAAAAAAAAEgAAAAAAAAAAAkAAAAAAAAAAAAAAAAAAAAAAAAAAkAAAAAAAAAAAAAAAAAAAAAAAAAACAAAAAAAAAAAAAAAAAgAAAAAAAAAAAAAAAAAAAAAAAAAAAAAAAAAAAAAAAAAAAAAAAAAAAAAAAAAAAAAAAAAAAAAAAAAAEAAAAAAAAAAAAAAAAAAAAAAAAAAAAAAAAAAAAAAAAAAAAAAAAAAAAAAAAAAAAAAAAAAAAAAgAAAAAAAAAAAAAAAAAAAAAAAAAAAAAAAAAAAAAAAAEAAAAAAAAAAAAAAAAAAAAAAAAAAAAAAAAAAAAAAAAAAAAAAAAAAAAAAAAAAAAAAAAAAAAAAAAAAAAAAkAAAAAEgAAAAAAAAAAAAAAAAAAAAAAAAAAAAAAAAAEgAAAAAAAAAAAAAAAAAAAAAAAAAAAAAAAAAAAAAAAAAAAAAAAAAAAAAAAAAAAAAAAAAAAAAAAAAAAAAAAAAAAEAAAAAAAAAAAAAAAAAAAAAAAAAAAAEgAAAAAAAAAAgAAAAAAAAAAAAAAAAAAAAAAAAAAAAAAAAAAAAAAAAAAAAAAAAAAAAAAAAAAAAAAAAAAAAAAAAAAAAAAAAAAAAAAAAAAAAAAAAAAAAAAAAAAAEgAAAAAAAAEAgAAAAAAAAAAAAAAAAEgAAAAAAAAAAAAAAAAAAAAAAAAAAAAAAAAAAAAAAAAAAAAAAAAAAAAAAAAAAAAAAkAAAAAAAAAAAAAAAAAAAAAAAkAAAAAAAAAAAAAAAAAAAAAAAAAAAAAAAEgAAAAAAAAAAAAAAAAAAAAAAAAAAAEAAAAAAAAAAAAAAAAAAAAAAAAAAAAAAAAAAAAAAAAAAAAAAAAAAAAAAAAAAAAEAAAAAAAAAAAAAAAAAAAAAAAAAAAAAAAAAAAAgAAAAAAAAAAAAAAAAkAAAAkAAAAAAAAAAAAAAAAAAAAAAAAAAAAAAAAAAAAAAAAAAAAAAAAAAAAAAAgAAAAAAAAAAAAAAAAAAAAAAAAAAAAAAAAAAAAAAAAAAAAAAAAAAgAAAAAAAAAAAAAAAAAAAAAAAAAAAAAAAAAAAAAAAAAAAAAAAAAAAAAAAAAAAAAAAAAAAAAEAAAAAAAAAAAAAAAAAAAAAAAAAAAAAAAAAAAAAAAAAAAAAAAAAkAAAAAAAAAAAAAAAAAAAAAAAAAAAAAAAAAAAAAAAAAAAAAAAAAAAAAAAAAAAAAAAEAAAAAAAAAAAAAAAAAAAAAAAAAAAAAAAAAAAAAAAAAAAAAAAAAAAAAAAAAAAAAAAAAAAAAAAAAAAAAAAAAAAAAAAAAAAAAAAAAAAAAAAAAAAAAAAAAAAAAAAAAAAAAAAAkAAAAAAAAAAAAAAAAAAAAAAAAAAAAAAAAAAAAEAAAAAAAAAAgAAAAAAAAAAAAAAAAAAAAAAAAAAAAAAAAAAAAAAAAAAAAAAAAAAAAAAAAAEAAAAAAAAAAAAAgAAAAAAAAEAAAAAAAAAAAAAAAAAAAAAAAAAAAEAAAAAAAAAAAAAEgAAAgAAAAAAAAAAAAAAAAAAAAAAAAAAAAAAAAAAAAAAAAAAAAAAAAAkAAAAAAAAAAAAAgAAAAAAAAAAAAAAAAAAAAAAAAAAAAAAAAAEgAAAAAgAAAAAAAAAAAAAAAAAAAAAAAAAAAAAAAAAAAAAAAAAAkAAAAAAAAAAAAgAAAAAAAAAAAAAAAAEAAAAAAAAAAAAAAAAAAAAAAAAAAAAAAAAAAAAAAAAAAAAAAAAAAAAAAAAAAAAAAAAAAAAAAAAAAAAAAAAAAAAAAAAAAAAAAAAAAAAAAAAAAAAAAAAAAAAAAAEAAAAAAEgAAAAAAAAAAAAAAAAAAAAAAAAAAAAAAAAAAAAAAAAAAAAAAAAAAAAAAAAAAAAAAAAAAAAAAAhAAAAAAAAAAAAAAAEgAAAAAAAAAAAAAAAAAAAAAAEAAAAAAAgAAAAAAAAAAAAAAAAEgAAAAAAAAgAAAAAAAAAAAAAAAAAAAAAAAAAAAAAAAAAAAAAAAAAAAAlgAAAAAAAAAAAAAAAAAAEAAAAAAAAAAAAAAAAAAAAAAAAAAAAAEgAAAAAAAAAAAAAggAAAAAAAEgAAAAAAAAAAAAAAAAAAAAAAAAAAAAAAAAAAAAAAAAEkAAAAAAAAAAAAAAAAAAAAAAAAAAAAAAgAAAAAAAAAAAAAAAAAAAAAEAAAAAAAAAAAAAAkAAAAAAAAAAAAAAAAAAAAAAAAAAAAAAAAAAAAAAAAAAAAEAAAAAEgAgAAAAAAAAAAAAAAAAAAAAAAAAAAAAAAAAAAAAAAAAAAAAAAAAAAAAAAAAAAAAAAAAAAAAAAAAAAAAAAAAAAAAAAAAAAAAAAAAAAAAAAAAAAAAAAAAAAAAAAAAAAAAAAAAAAAAAAAAAAAAAAAAAAAAAAAAAAAAAAAAAAAAAAAAAAAAAAAAAAAAAAAAAAAAAAAAAAAAAAAAAAAAAAAAAAAAAAAAAAAAAAAAAAAAAAAAAAAAAAAAAAAAAAAAAAAAEAAAAAAAAAAAAAAkAAAAAAkAAAAAAAAAAAAAAAAAAAAAAAAAAAAAAAAAAAAAAAAAAAAAAAAAAAAAAAAAAAAAAAAAAAAAAAAAAAAAAAAAAAAAAAAAAAAAAAAgEAAAAAAAAAAAAAAAAAAAAAEAAAAAAAAAAAAAAAAAAAAAAAAAAAAAAAAAAAAAAAAAAAAAAAAAAAAAAAAAAAAAAAAAAAAAAAAAAAAAAAAAAAAAAAAAAAAAAAAgAAAAAAAAAAAAAAAAAAAAAAAAAAAAAAAAAAAAAAAAAAAAAAAAAAAAAAAAAAAAAAAAAAAAAAAAAAAAAAAAAAAAAgAAAAAkAAAAAAAAAAAAAAAAAAAAAAAAAAAAAAAAAAAAAAAAAAAAAAAAAAAAAAAAAAAAAAAEAAAAAAAAAAAAAAAAAAAAAAAAAAAAAAAAAAgAAAAAAAAgAAAAAAAEgAAgAAAAAAAAAAAAEAAAAAAAAAAAAAAAAAAAAAAAAAAAAAAAAAAAAAAAAAAAAAAAAAAAAAAAAAAAAAAAAAAAAAAAAAAAAAAAAAAAAAAAAAAAAAAAAAAAAAAAgAAAAAAAAAAAAAAAAEAAAAAAAAAAAAAAAAAAAAAAAAAAAAAAAAAAAAAAAAAAAAAAAAAAAAAAAAAAAAAAAAAAAAAAAAAAAAAAAAEAAAAAAAAAAAAAAAAAAAAAAAAAAAAAAAAAAAAAAAgAAAAAAAAAAAAAAAAAAAAAAAAAAAAAAAAAAAAAAAAAAAAAAAAAAAAAAAAAAAAAAAAAAAAAAAAAAAAAAAAAAAAAAAAAAAAAAAAAAAAAAAAAAAAAAAAAAAAAAAAAAAAAAAAAAAAAAAAAAAAAAAAAgAAAAAAAAAAAAAAAAAAjgAAAAAEUAAAAAAEAAAAAAAAAAAAAkAAAAAAAAAAAAAAAAAAAAAAAAAAAAAAAAAAAAAAAAAEgAAAAAAAAAAAAAAAAAAAAAAAAAAAAAAAAAAAAAAAAAAAAAAAEAAAAAAAkAAAAAAAAAAAAAAAkAAAAEAAAAAAAAAAAAAAAAAAAAAAAAAAAAAAAAAAAAEAAAAAAAAAAAAAAAAAAAAAAAAAAAAAAAAAAAAAAAAAAAAAAAAAAAAAAAAAAAAEAAAAAAAAAAAAAAAAEAAAAAAAAAAAAAAAAAAAAAAAAAAAAAAAAAAAAAAAAAAAAAAAAAAAAAAAAAAAAAAAAAAAAAAkAAAAAAAAAAAAAAAAAAAAAAAAAAAEAAAAAAAAAAAAAAAAAAAAAAAAAAAAAAAAAAAAAAAAAAAAAAAAAAAAAAAAAAAAAAAAAAAAAAAAAEkAAAAAAAAAAAAAAAAkAAAAAAAAAAAAAAAAAAAAAAAAAAAAAAAAAAAAAAAAAAAAAAAAAAAAAAAAAAAAAAAAAAAAAAAAAAAAAAAAAAAAAAAAAAAAAAEAAAAAAEgAAAAAAAAAAAAAAAAAAAAAAAAAAAAAAAAAAAAAAAAAAAAEAAAAAAAAAAAAAAAAAAAAAAAAAAAAAAAAAEgAAAAAkAAAAAAAAAAAAAAAAAAAAAAAAAAAAAAAAAAAAAAAAAAAAAAAAAAAAAAAAAAAAAAAAAAAAAAAAAAAAAAAAAAAAAAAAAAAAAAAAAAAAAAAAAAAAAAAAEgAAAAAkAAAAAAAAAAAAAAAAAAAAAAAAAAAAAAAAAAAAAAAAAAAAAAAAAAAAAAAAAAAAAAAAAAAAAAAAAAAAAEgAAAAAAAAAAAAAAAAAAAAAAAAAAAAAAAAkAAAAAAAAAAAAAAAAAAAAAAAAAAAAAAAAAAAAAAAAAAAAAAAAAAAAAAAAAAAAAAAAAAAAAAAAAAAAAAAAAAAAAAAAAAAAAAAAAAAAAAAAAAAAAAAAAAAAAAAAAAAAAAAAAAAAAAAAAAAAAAAAAAAAAAAAAAAAAAAAAAAAAAAAAAAAAAAAAAAAAAAAAAAAAAAAAAAAAAAAAAAAAAAAAAAAAAAAAAAAAAAAAAAgEgAAAAAAAAAAAAAAAAAAAAAAAAAAAAAAAAAAAAAAAAAAAAAAAAAAAAAAAAAAAAAAAAAAAAAAAAAAAAAAAAgAAAAAAAAAAAAAAAAAAAAAAAAAAAAAAAAAAAAAAAAAAAAAAAAAAAAAAAAAAAAAAAAAAAAAAAAAAAAAAAAAAAAAAAAAAAAAAAAAAAAAAAAAAAAAAAAAAAAAAAAAAAAAAAAAAAAAAAAAAAAAAAAAAAAAAAAAAAAAAAAAAAAAAAAAAAAAAAAAAAAAAAAAAAAAAAAAAAAAAAgAAAAAAAAAAAAAAAAAAAAAAAAAAAAAAAAAAAAAAAAAAAAAAAAAAAAAAAAAAAAAAAAAAAAAAAAAAAAAAAAAAAAAAAAAAAAAAAAAAAAAAAAAAAAAAAAAAAAAAAAAAAAAAAAAAAAAAAAAAAAAAAAAAAAAAAAAAAAAAAAAAAAAAAAAAAAAAAAAAAAAAAAAAAAAAAAAAAAAAAAAAAAAAAAAAAAAAAAAAAAAAAAAAAAAAAAAAAAAAAAAAAAAAAAAAAAAAAAAAAAAAAAAAAAAAAAAAAAAAAAAAAAAAAAAAAAAAAAAAAAAAAAAAAAAAAAAAAAAAAAAAAAAAAAAAAAAAAAAAE0AAAAAAAAAAAAAAAAAAAAgAAAAAAAAAAAAAAAAAAAAAAAAAAAAAAAAAAAAAAAAAAAAAAAAAAAAAAgAAAAAAAAAAAAAAAAAAAAAAAAAAAAAAAAAAAAAAAAAAAAAAAAAAAAAAAAAAAAAAAAAAAAAAAAAAAgAAAAAAAAAAAAAAAAAAAAAAAAAAAAAAAAAAAAAAAAAAAAAAAAAAAAAAAAAAAAAAAAAAAAAAAAAAAAAAAAAAAAAAAAAAAAAAAAAAAAAAAAAAAAAAAAAAAAAAAAAAAAAAAAAAAAAAAAAAAAAAAAAAAAAAAAAAAAAAAAAAAAAAAAAAAAAAAAAAAAAAAAAAAAAAAAAAAAAAAAAAAAAAAAAAAAAAAAAAAAAAAAAAAAAAAAAAAAAAAAAAAAAAAAAAAAAAAAAAAAAAAAAAAAAAAAAAAAAAAAAAAAAAAAAAAAEAAAAAAAAAAAAAAAAAAAAEAAAAAAAAAAgAAAAAAAAAAAAAAAAAAAAAAAAAAAAAAAAAAAgAAAAAAAAAAAAAAAAAAAAAAAAAAAAAAAAAAAAAAAAAAAAAAAAAAAkAAAAAAAAAAAAAAAAAAAAAAAAAAAAAAAAAAAAAAAAAAAAAAAAAAAAAAAAAAAAAAAAAAkAAAAAAAAAAAAAAAAAAAAAAAAAAAAAAAAAAAAAAAAAAAAAAAAAAAAAAAAAAAEgAAAAAAAAAAAAAAAAAAAAAAAAAkAAAAAAAAAAAAAAAAAAAAAAAAAAAAAAAAgAAAAAAAAAAAAAAAAAAAAAAAAAAAAgAAAAAAAAAAAAAAAAAAAAAAAAAAAAAAAAAAAAAAAAAAAgAAAAAAAAAAAAAAAAAAAAAAAAAAAAAAAAAgAAAAAAAAAAAAAAAAAAAAAAAAAAAAAAAAAAAAAAAAAAAAAAAAAAAAAAAAAAAAAAAAAAAAAAAAAAAAAAAAAAAAAgAAAAAEAAAAAkAAAAAAAAAAAAAAAAAAAAAAAAAAAAAAAAAAAAAAAAAAAAAAAAAAAAAAAAAAAAAAAAAAAAAAAAAAAAAAAAAAAAAAAAAAAAAAAkAAAAAAAAAAAAAAAAAAAAAAAAAAAAAAkAAAAAAAAAAAAAAAAAAAAAAAAAAAAAAAAAAAAAAAAAEAAAAAAAAAAAAAAAAAAAAAAAAAAAAAAAAAAAAAAAAAAAAAAkAAAAAAAAAAAAAAAAAAAAAAAAAAAAAAAAAAAAAAAAAAAAAAAAAAAAAAAAAAAAAAAAAAAAAAAAEAAAAAAAAAAAAAAAAAAAAAAAAAAAAAAAAAAAAAAAAAAAAAAAAAAAAAAAAAAAAAAAAAAAAAAAAAAAAAAAAAAAAAAAAAAAAAAAAAAAAAAAAAAAAAAAAAAAAEAAAAAAAAAAAAAAAAAAAAAEAAAAAAAAAAAAAAAAAAAAAAAAAAAAAAAAAAAAAAAAAAAAAAAAAAAAAAAAAAAAAAAAEgAAAAAAAAAAAAAAAAAAAAAAAAAAAAAAAEAAAAAAAAAAAAAAAAAAAAAEAAAAAAAAAAAAAAAAAAAAAAAAAEgAAAAAAAAAAAAAAAAAAAAAAAAAAAAAAAAAAAAAEgAAAAAAAAAAAAAAAAAAAAAAAAAAAAAAAAAAAAAAAAAAAAAAAAAAAAAEAAAAAAAAAAAAAAAAAAAAAAAAAAgAAAAAAAAAAAAAAAAAAAAAAAAAAAAAAAAAAAAAAAAAAAAAAAAAAAAAAAAAAAAAAAAAAAAAAAAAAAAAAAAAAAEgEEAAAAAAAAAAAAAAAAAEAAAAAAAAAAEAAAAAAAAAAAAAAAAAAAAAEgAAAAAAAAAAAAAAAAAAAAAAAAAAAAAAAAAAAEgAAAAAAAAAAAAAAAAAAAAAAAAAAAAAAAAAAAAAAkAAAAAAkAAAAAAkAAAAAAAAAAAAAAAAAAAAAAAAAAAAEgAAAEAAAAAAAAAAAAAAAAAAAAAAAAAAAAAAAEgAAAAAAAAAAAAAAAAAAAAAAAAAAAAAAAAAAAAAAEAAAAAAAAAAAAAkAAAAAAAAAAAAAAAAAAAAAAAAgAAAAAAAAEEAAAAAAAAAAAAAAAAAAAAAAAAAAAAAAAAAAAAAAAAAAAAAAAAAAAAAAAAAAAAAAAAAAggAAAAgAAAAAAAAAAAAAAAAAAAAAAAAAAAAAAAAAAAAAAEAAAAAAAEAAAAAAAAAAAAAAAAAAAAAAAAAAAAAAAAAAAAAAAAAAAAAAAAAAAAAAAAAAAAAAAAAAAAAAAAAAAgAAAAAAAAAAAAAAAAAAAAAAAAAAAAAAAAAAAkAAAAAAAAAAAAAAAAAAAAAAAAAAAAEgAAAAAAAAAAAAAAAAAAAAAAAAAAAAAAAAAAAAAAAAAAAAAAAAAAAAAAAAAAAAAAAAAAAAAAAAAAAAAAAAAAAAAAAAAAAAAAAAAAAAAAAAAAAAAAAAAAAAAAEgAAAAAAAAAAAAAAAAAAEgAAAAAAAAAAAAAAAAAgAAAAAAAAAAAAAAEAAAAAAAAAAAAAAAAAAAAAAAAAAAAAAAAAAAAAAAAAAAAAAAAAAAAAAAAAAAAAAAAAAAAAAAAAAAAAAAAAAAAAAAAAAAAAAAAAAAAAAAAAAAAAAAAAAAAAAAEAAAAAAAAAAAAgAAAAAAAAAAEAAAAAAAAAAAAAAAAAAAAAAAAAAAAAAAAAAAAAAAAAAgAAAAAAAAAAAAAAAAAAAAAAAAAAAAAAAAAAAAAAAAAAAAkAAAAAAAAAAAAAAAAAAAAAAAAAAAAAAAAAAAAAAAAAAAAAAAAAAAAAAAAAEAAAAAAAAAAAAAAAEgAAAAAAAAAAAAAAAAAAAAAAAAAAAAAAAAAAAAAAAAAAAAAAAAAAAAAAAAAAAAAAAAAAAAAAAAAAkAAAAAAAAAAAAAAAAAAAAAAEAAAAEAAAAAAAAAAAAAAAAAAAAAAAAAAAAAAAAAAAAAAAAAAAAAAAAAAAAAAAAAAAAAAAAAAAAAAAAAAAAAAAAAAAAAAAAAAAEAAAAAkAAAAAAAAAAAAAAAEkAAAAAAAAAAAAAAAAAAAAAAAAAAAAAAAAAAAAAAAAAAAEAAAAAAAAAAAAAAAAAAAAAAAAAAAAAAAAAAAAAAAAAAAAAAAAAAAAAAAAAAAAAAAAAAAAAAAAAAAAAAAAAAAAAAAAAAAAAAAAAAAAAAAAAAAAAAAAAAAAAAAAAAAAAAAAAgAAEAAAAAAAAAAAAAAAAAAAAAAAAAAAAAAAAAAAAAAAAAAAAAgAAAAAAEgAAAAAAAAAAAAAAAAAAAAAAAAAAAAAAAAAAAAAAAAAAAAAgAAAAAAAAAAAAAAAEgAAAAAAAAAAAAAAAAAAAAAAAAAAAAAAAAAAAAAAAAAAAAAAAAEAAAAAAAAAAAAAAAAAAAAAAAAAAAAAAAAAAgAAAAAAAAAAAAAAAAAAAAAAAAAAAAAAAAAAAAAAAAAAAAAAAAAAAAAAAAAAAAAAAAAAAAAAAAAAAAAAAAAAAAAAAgAAAAAAAAAAAAAAAAAAAAAAAAAAAAAAAgAAAAAAAAAAAAAAgAAAAAAAAAAAAEgAAAAAAAAAAAAAAAAAAAAAAAAAAAkAAEAAAAAAAAAAAAAAAkAAAAAAAAAAAgAAAAAAAAAAAAAAAAAAAAAAAAAAAAAAAAAAkAAAAAAAAAAAAAAAAgAAAAAAAEAAAAAAAAAAAAAAAAAAAAAAAAAAAAAAAEAAAAAAAAAAAAAAAAAAAAAAAAAAAgAAgAAAAAAAAAAAAAAAAAAAAAAAAAAAAAAAAAAAAAAAAAAAAAAAAgAAAAAAAAAAAAAAAAAAAAAAAAAAAAAAAAAAAAAAAAAAAAAAAAAAAAAAAAAAAAAAAAAAAAAAgAAAAAAAAAAAAAAAAgAAAAAAAAAAAAAAAAAEgAAAAAAAkAAAAAAAAAAAAAAAAAAAAAAAAAAAAAAAAAAAAAAAAAAAAAAAAAAAEgAAAAAAAAAAAAAAAAAAEgAAAAAAAAAAAAAAAAAAAgAAAAAAAAAAAAAAAAAAAgAAAAAAEAAAEgAAAAAAEgAAAAAAAAAAAAAAAAAAAAAgAAEAAAAAAAAAAAAAAAAAAAAAAAAAAAAAAAAAAAAAAAAAAAAAAAAAAAAAAAAAAAAAAAAAAAAAAAAAAgAAAAAAAAAAEAAAAAAAEAAAAAAAAAAAAAAAAAAAAAAEAAAgAAAAAAAAAAAAAAAAAAAAAAAAAAAAAAAAAAAAAAAAAAAAAAAAAAAAAAAAAAAAAAAAAAAAAAAAAAAAAAAAAEAAAAAAAAAAAAAAAAAAAAAAAAAgAAAAEAAEAAAAAAAAAAAAAAAAAAgAAAAAAAAAAAAAAAAAAAAAAAAAAAAAAAAAAAAAAAAAAAAAAkAAAAAAAAAAAAAAAAAAAEAAAAAAAAAAAAAAAAAAAAAAAAAAAAAAAAAAAAAAAAAAAAAAAAAAAAAAAAAAAAAAAAAAAAAAAAEAAAAAAAAAAAAAAAAAAAAAAAAAAAkAAAAAAAAAAAAAAAAAAAAAAAAAAAAAAAAAAAAAAAAAAAAAAAAAAAAAAAAAAAAAAAAAAAAAAAAAAAAgAAEAAAAAAAAAAAEAAAAAAAAAAAAAAAAAAAAAAAAAAAAAAAAAAAAAAAAAAAAAAAAAAAAAAAAAAAAAAAkAAAAAAAAAAAAAAAAAAAAAAAAAAAAAAAAAAAAAAAAAAAAAAAAAAAAAAAAAAAAAAAAAAAAAAAAAAAAAAAAAAAAAAAAAAAAAAAAAAAAAAAAAAAAAAAAAAAAAAAAAAAAAAAAAAAAAAAAAAAAAAAAAAAAAAAAAAgAAAAAAAAAAAAAAAAAAAAAAAAAAAAAAAAAAAAAAAAAAAAAAAAAAAAAAAAAAAAAAAAAAAAAAAAAAAAAAAAAAAAAAAAAAAgAAAAAAAAAAAAAAAAAAAAAAAAAAAgAAAAAAAAAAAAAAAAAAAAAAAAAAAAAAAAAAAEgAAAAAAAAAAAAAAAAAkAAAAAAAAAAAAAAAAAAAAAAAAAAAAAAAAAgAAAAAAAAAAAAAAAAAAAAAAAAAAAAAAAAAAAAAAAAAAAAAAAAAAAAAAAAAAAAAAAAAAAAAAAAAAAAAAAAAAAAAgAAAAAAAAAAAAAAAAAAAAAAAAAAAAAAAAAgAAAAAAAAAAAAAAAAAAAAAAAAAAAAAAAAAAAAAAAAAAAAAAAAAAAAAAAAAAAAAAAAAAAAAAAAAAAAAAAAAAAAAAAAAAAAAAAAAAAAAAAAAAAAAAAAAAAAAAAAAAAAAAAAAAAAAAAAAAAAAAAAAAAAAAAAAAAAAAAAAAAAAAAAAAAAAAAAAAAAAAAAAAAAAAAAAAAAAAAAAAAAAAAAAAAAAAAAAAAAAAAAAAAAAAAAAAAAAAAAAAAAAEgAAAAAAAAAAAAAAAAAAAAAAAAAAAAAAAAAAAAAAAAAAAAAAAAAAAAAAAkAAAAAAAAAAAAAAAAAAAAAAAAAAAAAAAAAAAAAAAAAAAAAAAAAAAAAAAAAAAAAAEAAAAAAAAAAEgAAAAAAAAAAAAAAAAAAAAAAAAAEAAAAAAAAAAAAAAAAAAkAAAAAAAAAAAAAAAAAAAAAAAAAAAAAAAAAAAAAAAAAAAAAAAAAAgAAAAAAAAAAAAAAAAAAAAAAAAAAAAAAAAAAAAAAAAAAAAAAAAAAAAAAAAAAAAAAAAAAAAAAAAAAAAAAAAAAAAAAAAAAAAAEAAAAAAAAAAAAAAAAAAAAAAAAAEAAAAAAAAAAAAAAAAAAAAAAAAAAAAAAEAAAAAAAAAAAAAAAAAAAAAAAAAAAAAAAAAAAEgAAAAAAAAAAAAAAAEgAAAAAAAAAAAAAAAAAAAAAAAAAAAgAAAAAAAAAAAAAAAAAAAAAAAkAAAAAAAAAAAAAAAAAAAAAAAAAAAAAAAAAAAAAAAAAAAAAAAAAAAAAAAAAAAgAAAAAAAgAAAAAAAAAAAAAAAAAAAAAAAAAAEgAEgAAAAAAAAAAAEAAAAAAAAkAAAAAAAAAAAAAAAAAAAAAAAAAAAAAAAAAAAAAAAAAAAAAAAAAAAAAAkAAAAAAAAAAEAAAAgAAAAAAAAAAAAAAAAAAAAAAAAAAEAAAAAAAAAAAAEAAAAAAAAAAAAAAAAAAAAAAAAAAAAAAAAAAAAAAAAAAAAAAAAAAAAAAAAAAAAAAAkAAAAAAAAAAEAAAAAAAAAAAAAAAAAAAAAAAAAAAAAAAAAAAAAAAAAAAAEAAAAAAAAAAAAAAAAAAAAAAAAAAAAAAAAAAAAAAAAAAEgAAAAAAAAAAAAAAAAAAAAAAAAAAAAAAAAAAAAAAAAAAAAAAAAAAAAAAAAAAAAAAAAAAAAAAAAAAAAAAAAAAAAAAAAAAAAAAAAAAAAAAAAAAAAAAAAAgAAAAAAAAAAAAAAAAAAAAAAAAAAAAAAAAAAAAAAAAEAAAAAAAAAAAAAAAAAAAAAAAAAAAAAAAAAAAAAAAAAAAAAAAAAAAAAAAAAAAAAAAAAAAAAAAAAAAAAEAAAAAAAAAAAAAAAAAAAAAAAAAAAAAAAAAAAAAAAAAEAAAAAAAAAAAAAAAAAAAAAAAAAAAAAAAAAAAAAAAAAAAAAAAAAAAAAAAAAAAAAAAAAAAAAAAAAAAAAAAAAAAEgAAAAAAAAAAAAAAAAAAAAAAAAAAAAAAAAAAAAAAAAAAAAAAAAAAAAAAAAAAgAAAAAAAAAAAAAAAAAAAAAAAAAAAAAAAAAAAAAAAAAAAAAAAAAAAAAAAAAAAEAAAAAAAAAAAAAAAAAAAAAAAAAAAAAAAAAAAAAAAAAAAAAAAAAAAAAAAAAAAAAAAAAAAAAAAAAAAAAAAAAAAAAAAAAAAAAAAAAAAAAAAAAAkgAAAAAAAAAAAAAAAAAAAAAAAAAAAAAAAAAAAAAAAAAAAAAAAAAAAAAAAAAAAAAEgAAAAAAAAAAAAAAAAAAAAAAAAAAAAAAAAAAAAAAAAAAAAAAAAAAAAAAAkgAEAAAAAAAAAAAAAAAAAAAAAAAAAAAAAAAAAAAAAAAAAAAAAAAAAAAAAAAAAAAAAAAAAAAAAAAAAAAAAAAAAAAAAAAAAAAAAAAAAAAAAAAAAAAAAAAAAAAAAAAAgAAAAAAAAAAAAAAAAAAAAAAAAAAAAAAAAAAAAAAAAAAAAAEgAAAAAAAAAAAAAAAAAAAAAAAAAAAAAAAAAAAAAAAAAAAAAAAAAAAAAAAAAAAAAAAAAAAAAAAAAAAAAAAAAAAAAAAAAAAAAAAAAAAAAAAAAAAAAAAAAAAAAAAgAAAAAAAAAAAAAAAAAAAAAAAAAAAAAAAAAAAAAgAAAAAAAAAAAAAAAAAAAAAAAEAAAAAAAAAAAAAAAAAAAAAAAAAAAAAAAAAAAAAAAAAAAAAAAAAAAAAAAAAAAAAAAAAAAAAAAAAAAAAAAAAAAAAAAAAAAAAAAAAAAAAAAAAAAAAAAAAAAAAAAEgAAAAAAAAAAAAAAAAAAAAAAAkAAAAAAAAAAAAAAAAAAAAAAAAAAAAAAAAAAAAAAAAAAAAAAAAAAAAAAAAAAAAAAAgAAAAAAAAAAAAAAAAAAAAAAAAAAAAAkEAAAAAAAAAAAAAAAAAAAAAAEgAAAAAAAAAAgAAAAAAAAAAAAAAAAAAAAAAAAAAAAAAAAAAAAAAAAAAAAAAAAAAAAAAAAAAAAAAgAAAAAAAAAAAAAAAAAAAAkAAAAAAEAAgAAAAAAAAAAAAAAAAAAAAAAAAAAAAAAAAAAAAAAAAAAAAAAAAAAAAAAAAAAAAAAAAAAAAAAAAAAAAAAAAAAAAAAAAgAAAAAAAAAAAAAAAAAAAAAAAAAAAEAAkAAAAAAAAAAAAAAAAAAAAAAAAAAAAAAAAAAAAAAAAAAAAkAAAAAAAAAAAAAAAAAAAAAAAAAAAAAAgAAAAAAAAAAAAAAAAAAAAAAAAAAAAAAAAAAAAAAAAAAAAAAAAAAAAAAAAAAAAAAAAAAAAAAAAAAAAAAAAAAAAAAAAAAAAAAAAAAkAAAAAAAAAAAAAAAAAAAAAAAAAAAAAAAAAAAAAAAAAAAAAAkAAAAAAAAAEAAAAAAAAAAAAAAAAAAAAAAAAAAAAAAAAAAAAAAAAAAEAAAAAAAAAAAAAAAAAAAAAAAAAAAAAAAAAAAAAAAAAAAAAAAAAAAAAAAAAAAAEEAAAACAAAAAAAAAEAAEAAAAAAAAAAAAAAAAAEAAAAAAAAAAAAAAAAAAAAAEAgAAAAAAAAAAAAAAAAAAAAAAkAAAAAAAAAAAAAAAAAAEgAAAAAAAAAAAAAAkEEAAAAkAAAAEkAAAAAAAAAAAAAAAAAAAAAAAAEgAAAAAAAAAAAAAAAAkAAAAAgAAAAAAAAAAAAAAAAAAAAEAgAAAAAAAAAAAAAAAAAAAAAAAAAAAAAAAAAAAAAAAAAAAAAAEEAAAAAAAAAAAAAAAAAAAAAAAAAAEgAAAAAAAAAAAAAAkAAAAAgAAAAAAAAAAAAAAEAAAAAkAAAAAAAAAAAAAAAAAAAAAAAAAAAgAAAAAAAAAAAAAAAAAAAAAAAAAAAAAAAAAAAAAAAAAAAAAAAAAAAAAAAAAAAAAAAAAAAAAAAAAAAAAkAAAAAAEAAAAAAAAAAAAAAAAAAAAAAAAAAAAAAAAAAAAAAAAAAAAAAAAAAAAAAAAAAAAAAAAAAAAAAAAAAAAAAAAAAAAAAAAAEgAAAAgAAAAAAAAAAAAAAgAgAAAAAAAAAAAAAAAAAAAAAAAAAAAAAAAAAAAAAAAAAAAAAAAAAAAAAAAAAAAAAAAAAAAAAAAAAAAAAAAAAAAAAAAAAAAAAAAAAAAAAAkAAAAAAAAAAAAAAkAAAAAAAAEAAAAAAAgAAAAAAAAAAAAAAAAAkAAAAAAAAAAAAAAAAAAAAAAAAAAAAAAAAAAAAAAAAAAAAAAAAAAAAAAAAAAAAAAAAAAAAAAAAAAAAAAAAAAAAAAAAAAAgAEAAAAgAAAAAAAAAAAEgAAAAAAAAAAAAAAAAAAAAAAAAAAAAAAAAAAAAAAAAAAAAAAAAAAAAAAAAAAAAAAAAAAAAAAAAAAAAAAAAAAAAAAAAAAAAAAAAAAAAAEAAAAAAAAAAAAAAAAEAAAAAAAAAAAAAAAAAAAAAAAAAAAAAAAAAAAAAAAAAAAAAEAAAAAAAAAAAAAAAAAAAAAAAAAAAAgAAAAAAAAAAAAAAAAAAAAAAAAAAAAAAAAgAAAAAAAAAAAAAAAAAAAAAAAAAAAAAAAAAAAAAAAAAAAAAAAAAAAAAAgAAAAAAAAAAAAEAAAAAAAAAAAAAAAAAAEEAAAAAAAAAAAAAAAAAAAAAAAAAAEAAAAAAAAAAAAAAAAAAAAAAAAAAAAAAAAAAAAAAAAAAAAAAAAAAAAAAAAAAAAAAAAAAAAAAAAAAAAAAAAAAAAAAAAAAAAEAAAAAAAAAAAAAAAAAAAAAAAAAAAgAAAAEAAAAAAAAAAAAAAAAAAAAAAAAAAAAAAAAAAAAAAAAAAAAAAAAAAAAAAAAAAAAAAAAAAAAAAAAAAAAAAAAAAAAAAAAAAAAAAkAAAAAAAAAAAAAAAAAAAAAAAAAAAAAAAAAAAAAAAAAAAAAAAAAAAAAAAAAAAAAAAAAAAAAkAAAAAAAAAAAAAAAAAAAAAAAAAAAAAAAAAAAAAAAAAAAAAAAAAgAAAAAAAAAAAAAAAAAAAAAAAAAAAAAAAAAAEgAAAAAAAAAAAAAAAAAAAAAAAAAAAAAAAAAAAAAAAAAAAAAAAAAAAAAAAAAAAAAAAAAAAAAAAAAAAAAAAAAAAAAAAAAAAAAAAAAAAAAAAAAAAAAAAAAAAAAAEAAAAAAAAAAAAAAAAAAAAAAAAAAAAAAAAAAAAAAAAAAAAAAAAAAAAAAAAAAAAAAAAAAAAAAAAAAAAAAAAAAEAAAAAAAAAAAAAAAAAAAAAAAAAEAAAAAAAAAAgAAAAAAAAAAAAAAAAAAAAAAAAAAAAAAAAAAAAAAAAAAACAAAAAAAAAAAAAAAAAAAAAAAAAAAAAAAAAAAAAACAAAAAAAAAAAAAAAAAAAAAAAAAAAAAAAAAAAAAAAAAAAAAAAAAAAAAAAAAAAAAAAAAAAAAAAAAAAAAAAAH8AAAAAAAAAAAAAAAAAAAAAAAAAAAAAAAAAAAkAkAAAAAAAAAAAAAAAAAAAAAAAAAAAAAAAAAAAAAAAAAAAAAAAAAAAAAAAAAAAAAAAAAAAAAAAAAAAAAAAAn8AAAAAAAEAAAAAAAAAAAAAAAAAAAAAAAAAAAAAAAAAAAAAAAAAAAAAAAAAAAAAAAAAAAAAAAAAAAAAAAAAAAAAAAAAAAAAAAAAAAAAAAAAAAAAkAAAAAAAAGgAAAAAAAAAAAAAAAAAAAAAAAAAAAAAAAAAAAAAAAAAAAAAAAAAAAAAAAAAAAAAAAAAAAAAAAAAAAAAAAAAAAAAAAAAAAAAAAAAAAAAAAAAAAAAAAAAAAAAAAAAAAAAAAEAAAAAAAAAAAAAAAAAAAAAAAAAAAAAAAEgAAAAAAAAAAAAAAAAAAAAAAAAAAAAAAAAAAAAAAAAAAAgAAAAAAAAAgAAAAAAAAAAAAAAAAAAAAAAAAAAAAAAAAAAAAAAAAAAAAAAAAEAAAAAAAAAAAAAAAAAAAAAAAAAAAAAAAAAAAAAAAAAAAAAAAAAAAAAAAAAAAAEAAAAAAAAAAAAAAAAAAAAAAAAAAAAAAAEAAAAAAAAAAAAAAAAAAAAAAAAAAAAAAAAAAAAAAAAAAAAAAAAAAAAAAAAAAAAAAAAAAAAAAAAAAAAAAAAAAAAAggEgAAAAAAAAAAAAAAAAAAAAAAAAAAAAAAEAAAAAAAAAAAAAAAAAAAAAAAAAAAAAAAAAAAAAAAAAAAAAAAAAAAAAAAAAAAAAAAAAAAAAAAAAAAAAAAAAAAAAAgAAAAAAAAAAAAAAAAAAAAAAAAAAAAAAAAAAAAAAAAAAAAAAAA/8QAGxEBAQACAwEAAAAAAAAAAAAAAREAcJCgwOD/2gAIAQMBAT8Q2c0TkQvtwT5vmC4k3fcW9br/xAAdEQACAQQDAAAAAAAAAAAAAAABEXAAIaDQMZCw/9oACAECAQE/EJNBhVyuiBzeaA1Z8tzk3xjg9iJzgKcUwwtN6wy//8QALBABAQABAwMEAQQCAwEBAAAAAREhADFgQVBwMEBRYSBxgZGhEICQsfDR4f/aAAgBAQABPxDyJFnX0RSaCQbV+vciSojK9fJvT2MwzPSnuZn/AEWp/GhEJBU6+zFJr5EGKErOh0ngIxjMbmMOmKaROhR+TvTTKqb++XABA9NPTifDdj6C4PCynT4SvUhM5NXZqqKkXHx046FGKPz66hvoaXwEgiJR0AbHI1aSb+il5os1JVGUjzKezdusI5R0eVIPuQzWFIStri4+u7KG7rc9NIJy7dqF/wDzR7mbhv6j17Hm/XbUzeUmUFHEdAAAgYA9NKECm2NvASzUDiRnElhoBRH9PDkvFAAgB+nikUlmsV/295WaEfbZvllLoA7ztq87FquU7oI7N4AlNARCzKE7wkQuc520NNpwIjr3M0e+WzoJvw3N7EwAYevpJdbcvdtPSAErf55LfBxRfjkTk0WZ8AT/AEBdtF68KWb+1s5pQYv0aMnbapC/OdtG3eAVkEmGe9L19AWtk5JOQwQjn4NG3ItmswO7rk/F2Pox7kQowU+L2Onz5NrK9jCPyLKZHR1ln34fxKrTq/TSrXoO49R++wi2dO3zuV9nbxp1nlAAFWr+72cgn02A2Rub1J96Nu+bat97hWM5mcaCeyjLrxNYXQyCQFPr/wAcrdNBRy7HvJnQBycA2PxUfL6/3tKenq3tlbJ+/EOvXk+wBW4OvorqIiCqtiGlQ+b6ThU/Zy9YaPdDb+uSPXGT+eTYtUElT+OCBaAywX9emrlAIKDQevY1DfW/5S7+7niRUQC1znbtWPjcJZLSlxeujB2RsxGF2f08Qw4fO1mroGIOynj6wObixlh1new7Ml0wDXWdn0a6+sc6apT9Ay6ABYlyT1nJjRTYvWe36H+WzGjiitDoM25ilbowT39n5o4Al6Tozc+uHO2hCVf15zs+lyF+h11aVv7+oW9faKOwuA5yNna6EP8AUwAFCsz19Z2xoqH/ALV/+aOwhTDNHd6iDH5m2rAFr8+BkwjqS1JT4wvrO2in6mMfmsTC16eGFnnAEHZJoIAdPVCeHG3gYUxoD5965Ljf6n+31UoM5p09F0EGq16+cgpjSaORii6gwv8AHkKMPOE31M5lmk/f/QAUAMAYSY63P8eRp2qFvLm9PDDnVCiY6N/4SQoZqfejbtR7UbwiLyh4BEVL8vXgzOYUbKS5/rRnXy2Mln0fXN3btsipc/foTMm3C37vPKWXPGP24Jnim4wryWBCVY+/Tb0dHj9YV0IBOvfTJDZRwOSKbmL00bcUp88dS6CHhKeaogu7Dm7dznKZ7Zl1xOe7nE/j+e6Oht+uGpeOWlsFZoQdhSk8FJXr2MzFWzlkWu7NhwZ203NBso1+I6L17I7aYq5CQfDPaQGC/BrAUR6nbAFdZdtF9JwopnDlmhvqopj1lne0ughPRCYojqC/9HAN9BpIizuu7w4gGI2FnR+tBPd2QqpHuLRSDAQv86Nj2c8DtmNAoZCpdUei/ejY4wAzoz7BHp4XvCJrbvSirDQ0tvLBZs+meA0uJTQQm3Z6Mv5i/wB6CGeyO2lGHIUAlfI599fL6fDUUK+K4NQWewSmGaCAo6sl7e6rN/b3hKZISbmTc3EwSd4CpUj0d+NIJEutuaWeN3RntuNmCzVDAXfrpKZ39KXxxJt6bijP5BrkwvYQjhru3jKoxgsN3QR8KeXoxS/v5hTuZmZ7CArP3dKNpzFZNHHEO4ObnsOyhILE2T70AbcjnBb74dYGl5llnxTnROkAKrsaAU9uW6Kbl24Al6++ncz7t20Ndu8LChdH5LPfoJEpoA2PboGQJnU4M4O6AwTv8O7zlFU1np8eMFgIFzjc7Ks9kK8pQGN6zs46DQ+e0zv9nfXbTQsEaSt5m4/JQ0EE6hOqMf7HxWl09AFFsyu7nr+xj13QBst6dtv5NO+NCG33wVlz8eB/nZ3nc0dCOhL/AHpLuT0hev5QG9eyxbx521DJlZLliT63/rSx0Ioglgj/AB44Em4Fnd0upPDLMP509xPKO2uJDBs/qflk4YYu10aAJ3KX68u3zhGXXhO3KbNNzJJViMT9k8DBTEv3qgYXrOylOiTgaU0InFXQaqONn/gIUBVgaG8+cmgltV9q3pxvfk24WFDkpVBL0uigHfi9LL6eLnHm9cnRc7fHJ83hIqZJ2GG/VzpQfn2YBFVT69MA33KlqP1HQ07gs0NLzZQuf2NG3rvDAREonxoAAAIB07vv+TIwFdW0aY4p+nakHfQAQIctWa3mgymMOnthKGVEAN1dEDPQonyPX0L3cmdgjoiGwT3L+ArefG/fP0ugntmggREomiQgEAIHoEG6/bxEA4s7OlowRBPl5jFl64NDTiazw4g78UQd/FIjy3cp19ECznRsEPjkdB185DBL9n17IaZN2MLjB8GP2484LpP9mTptoyc930AbHMYfHnYMHJx5ZoaecADAThoNV9dpsXP+iOf09xQFWHzoaXn/AE0UgKS/AJA+I97DAAofM30N/wATtztosz7ZQZ2YZQcjPASQgu16zQTg63ZOtOu4S3pv2bdfCyZ3423011Mvq9O+sA+fIzo49v7RYIqH2/8AjisF0bZ50mFhMlLu6yZ/xfR3eLVsvS/WklsXxYZn1faRb+Sw1kWCVUox/vhwfFZsqhNvs20WZ/zT57eI7dmdBD2I5FmgTFcjgx976sM39/UbMayNCdPwnpSeks31HyewzYpYIVy9jdG2e3LkoQN3mu2HSdqGL1YaGl/AbJACK+Z048KaUUCWREzW5z+mggHFgm3pzPvz05dbd2Qchgi/scaSufjw4sK6EfVcqL9HXSPKF/rHx+s1AEz8e9v4FpdUoXRmLooCFmUJfV2aVO5sIaRPYFU5PCBRtfjskugAhg96g7629j0aralgqViGA6ev17Ig7mjgXBP0AeN3gnYYXP43zWh/GejHrx8T3KXrOYI7r3/Ulnxcdls8YX3eSwvz2VMWBHbf60EP8XO3i1kI4azr9c5LIru4D6kIqsDbc6ifP34921b4Lb00cjSmhQW7s8GWdPODKCrpmZ8TU4TReFIr9ccWbaUyVYKfZHPT++EuagtEMJtxk0TA30S5Y+TV4XNQ8HpBAXYu/szDUEQZqAAD2NO7hVQPRdAEYxlOr4TqtqtNkY9KaPZT2WUlISWWuJviGfvgIUHIH0fX34vi3xY3oaLC+XGxtJrpqbl8MSoH7bnh5QgXA7uLjhqArMMDf5u+10qPwAG9/wAuqeLHc0bci//Z&quot;,&quot;width&quot;:&quot;1920&quot;,&quot;height&quot;:&quot;1124&quot;,&quot;x&quot;:0,&quot;y&quot;:0}" math="0" shadow="0">
      <root>
        <mxCell id="0" />
        <mxCell id="1" parent="0" />
        <mxCell id="PxSyx4WK8ubiatb02DGu-4" value="" style="rounded=0;whiteSpace=wrap;html=1;fillColor=#76608a;strokeColor=#432D57;fontColor=#ffffff;" vertex="1" parent="1">
          <mxGeometry x="65" y="1040" width="145" height="80" as="geometry" />
        </mxCell>
        <mxCell id="PxSyx4WK8ubiatb02DGu-5" value="&lt;font style=&quot;font-size: 16px;&quot;&gt;Power&amp;nbsp;&lt;/font&gt;&lt;div style=&quot;font-size: 16px;&quot;&gt;&lt;font style=&quot;font-size: 16px;&quot;&gt;ON&lt;/font&gt;&lt;/div&gt;" style="text;html=1;align=center;verticalAlign=middle;whiteSpace=wrap;rounded=0;fontFamily=Georgia;fillColor=#bac8d3;strokeColor=#23445d;" vertex="1" parent="1">
          <mxGeometry x="86.88" y="1057.5" width="98.75" height="45" as="geometry" />
        </mxCell>
        <mxCell id="uijGcLz2lDyKQS5LM0p6-1" value="" style="shape=parallelogram;perimeter=parallelogramPerimeter;whiteSpace=wrap;html=1;fixedSize=1;fillColor=#cdeb8b;strokeColor=#36393d;" vertex="1" parent="1">
          <mxGeometry x="52.5" y="870" width="167.5" height="70" as="geometry" />
        </mxCell>
        <mxCell id="uijGcLz2lDyKQS5LM0p6-2" value="&lt;font style=&quot;font-size: 12px;&quot;&gt;processor start BIOS or EFI (Firmware)&lt;/font&gt;" style="text;html=1;align=center;verticalAlign=middle;whiteSpace=wrap;rounded=0;fontFamily=Georgia;fillColor=#bac8d3;strokeColor=#23445d;" vertex="1" parent="1">
          <mxGeometry x="75" y="880" width="125" height="50" as="geometry" />
        </mxCell>
        <mxCell id="uijGcLz2lDyKQS5LM0p6-5" value="" style="html=1;shadow=0;dashed=0;align=center;verticalAlign=middle;shape=mxgraph.arrows2.arrow;dy=0.6;dx=40;notch=0;rotation=-90;fillColor=#000000;strokeColor=#FFFFFF;" vertex="1" parent="1">
          <mxGeometry x="103.13" y="970" width="66.25" height="30" as="geometry" />
        </mxCell>
        <mxCell id="uijGcLz2lDyKQS5LM0p6-6" value="" style="html=1;shadow=1;dashed=0;align=center;verticalAlign=middle;shape=mxgraph.arrows2.arrow;dy=0.6;dx=40;notch=0;rotation=-90;fillColor=#000000;strokeColor=#FFFFFF;" vertex="1" parent="1">
          <mxGeometry x="96.88" y="790" width="66.25" height="30" as="geometry" />
        </mxCell>
        <mxCell id="uijGcLz2lDyKQS5LM0p6-8" value="" style="verticalLabelPosition=bottom;verticalAlign=top;html=1;shape=mxgraph.basic.diag_snip_rect;dx=6;whiteSpace=wrap;fillColor=#b0e3e6;strokeColor=#0e8088;" vertex="1" parent="1">
          <mxGeometry x="52.51" y="680" width="155" height="80" as="geometry" />
        </mxCell>
        <mxCell id="uijGcLz2lDyKQS5LM0p6-9" value="&lt;font style=&quot;font-size: 16px;&quot;&gt;POST- (BIOS Instruction)&lt;/font&gt;" style="text;html=1;align=center;verticalAlign=middle;whiteSpace=wrap;rounded=0;fillColor=#fad7ac;strokeColor=#b46504;" vertex="1" parent="1">
          <mxGeometry x="68.44999999999999" y="692.5" width="123.12" height="55" as="geometry" />
        </mxCell>
        <mxCell id="uijGcLz2lDyKQS5LM0p6-11" value="" style="html=1;shadow=0;dashed=0;align=center;verticalAlign=middle;shape=mxgraph.arrows2.arrow;dy=0.6;dx=40;notch=0;rotation=-90;fillColor=#000000;strokeColor=#FFFFFF;" vertex="1" parent="1">
          <mxGeometry x="96.88" y="590" width="66.25" height="30" as="geometry" />
        </mxCell>
        <mxCell id="uijGcLz2lDyKQS5LM0p6-13" value="" style="verticalLabelPosition=bottom;verticalAlign=top;html=1;shape=mxgraph.basic.plaque;dx=6;whiteSpace=wrap;fillColor=#e3c800;fontColor=#000000;strokeColor=#B09500;" vertex="1" parent="1">
          <mxGeometry x="40" y="470" width="200" height="90" as="geometry" />
        </mxCell>
        <mxCell id="uijGcLz2lDyKQS5LM0p6-14" value="&lt;font style=&quot;font-size: 16px;&quot;&gt;CD, USB, Removable Disk, Network Adapter (Stored in BIOS)&lt;/font&gt;" style="text;html=1;align=center;verticalAlign=middle;whiteSpace=wrap;rounded=0;labelBackgroundColor=none;fillColor=#6d8764;strokeColor=#3A5431;fontColor=#ffffff;" vertex="1" parent="1">
          <mxGeometry x="46.25" y="485" width="187.5" height="60" as="geometry" />
        </mxCell>
        <mxCell id="uijGcLz2lDyKQS5LM0p6-16" value="" style="html=1;shadow=0;dashed=0;align=center;verticalAlign=middle;shape=mxgraph.arrows2.arrow;dy=0.6;dx=40;notch=0;rotation=-90;fillColor=#000000;strokeColor=#FFFFFF;" vertex="1" parent="1">
          <mxGeometry x="96.88" y="380" width="66.25" height="30" as="geometry" />
        </mxCell>
      </root>
    </mxGraphModel>
  </diagram>
</mxfile>
